<?xml version="1.0" encoding="UTF-8"?>
<svg fill="currentColor" id="Layer_2" data-name="Layer 2" xmlns="http://www.w3.org/2000/svg" viewBox="0 0 248.45 179.44">
  <g id="Layer_1-2" data-name="Layer 1">
    <g id="pJJWnx">
      <g>
        <path d="M7.59,176.55s-.08,0-.12-.03c-.11-.06-.22-.12-.34-.17-.27-.13-.55-.27-.78-.47-.43-.38-.85-.78-1.25-1.17-.64-.62-1.3-1.25-2.01-1.8-2.03-1.57-3.07-3.75-3.07-6.47C0,120.78,0,75.89,0,22.53c0-.91.02-1.96.26-2.94.87-3.54,2.97-6.03,6.26-7.4,2.04-.85,4.19-.94,6.28-1.02.89-.04,1.81-.08,2.7-.17,2-.22,4.05-.34,6.03-.46.88-.05,1.77-.11,2.65-.17l2.61-.18c2.02-.14,4.04-.28,6.07-.42,1-.07,2-.13,3-.18,1.54-.09,3.14-.19,4.71-.31,1.74-.13,3.5-.29,5.21-.43,2.04-.18,4.15-.36,6.23-.51,1.95-.14,3.93-.24,5.85-.34.98-.05,1.96-.1,2.95-.15,1.37-.08,2.61-.15,3.85-.24,2.02-.15,4.05-.31,6.07-.47,1.07-.08,2.13-.17,3.2-.25,1.79-.14,3.58-.28,5.37-.41l4.85-.37c1.81-.14,3.62-.27,5.43-.42,2.67-.22,5.22.2,7.58,1.24.86.38,1.7.83,2.52,1.27.37.2.74.4,1.11.59.12.06.16.21.1.32-.06.12-.21.16-.32.1-.38-.19-.75-.39-1.12-.59-.81-.43-1.64-.88-2.48-1.25-2.28-1.01-4.75-1.41-7.34-1.2-1.81.15-3.62.28-5.43.42l-4.85.37c-1.79.14-3.58.27-5.37.41-1.07.08-2.13.17-3.2.25-2.02.16-4.05.32-6.07.47-1.24.09-2.48.17-3.86.24-.98.06-1.97.1-2.95.15-1.91.1-3.89.2-5.84.34-2.08.15-4.19.33-6.23.51-1.71.15-3.47.3-5.21.43-1.57.12-3.17.22-4.72.31-1,.06-2,.12-2.99.18-2.02.13-4.04.28-6.06.42l-2.61.18c-.88.06-1.77.11-2.65.17-1.97.12-4.01.24-6.01.46-.91.1-1.84.14-2.74.18-2.04.09-4.15.17-6.11.99-3.14,1.31-5.15,3.68-5.98,7.06-.23.93-.25,1.95-.25,2.83-.01,53.36-.02,98.25.01,143.9,0,2.57.97,4.62,2.88,6.09.73.56,1.4,1.21,2.05,1.83.4.39.82.79,1.24,1.16.18.16.42.28.67.4.12.06.25.12.36.18.12.06.16.21.09.33-.04.08-.13.12-.21.12Z"/>
        <path d="M13.92,179.44c-1.77,0-3.55-.35-5.19-1.7-1.2-.98-1.54-2.25-1.87-3.47l-.06-.2c-.29-1.06-.29-2.2-.29-3.3v-.24s0-14.04,0-14.04c-.01-43.19-.02-87.86.03-131.79,0-4.71,2.3-7.77,7-9.35.62-.21,1.3-.23,1.96-.25.24,0,.5-.01.74-.03.61-.04,1.21-.08,1.82-.11.71-.04,1.44-.08,2.16-.14,1.66-.13,3.32-.26,4.98-.39,1.35-.11,2.7-.22,4.05-.32,1.27-.1,2.54-.18,3.62-.24,1.07-.06,2.13-.12,3.2-.18,1.67-.1,3.41-.19,5.11-.3,1.42-.09,2.86-.2,4.26-.3.79-.06,1.58-.12,2.37-.17,1.14-.08,2.29-.16,3.43-.24,1.14-.08,2.29-.16,3.43-.24,2.21-.16,4.42-.32,6.62-.48.92-.07,1.83-.14,2.75-.21,1.13-.09,2.26-.18,3.4-.26,1.24-.09,2.48-.18,3.73-.26,1.09-.07,2.17-.15,3.26-.23l.37-.03c1.97-.14,4.01-.29,6.01-.46,1.94-.16,3.88-.33,5.81-.5,2.67-.23,5.44-.47,8.16-.69.95-.08,1.91-.12,2.84-.16.65-.03,1.32-.06,1.98-.1.19-.01.39-.07.61-.14.1-.03.21-.06.31-.09.06-.02.13,0,.18.03.04-.02.09-.04.14-.03,3.06.29,5.67,2.59,6.34,5.61.17.74.25,1.53.25,2.34v5.24c.01,45.37.02,92.28-.02,138.42,0,4.02-2.26,7.02-6.18,8.24-1.34.42-2.79.52-4.19.63-.61.05-1.25.09-1.86.17-.82.1-1.65.19-2.47.29-.9.1-1.8.21-2.7.32-1.28.15-2.56.31-3.85.47l-1.43.18c-2.17.27-4.35.53-6.52.8l-1.18.14c-1.19.15-2.43.3-3.64.46-.73.1-1.45.21-2.18.32-.9.14-1.84.28-2.76.39-.88.11-1.78.2-2.66.29-.64.06-1.28.13-1.92.2-2.13.24-4.39.51-7.1.84-1.17.14-2.35.3-3.52.45l-1.17.15c-.72.09-1.44.19-2.16.28-1.42.19-2.89.38-4.34.56-1.03.13-2.06.24-3.09.36-1.36.15-2.76.31-4.13.49-1.34.17-2.71.37-4.02.55-1.52.22-3.1.44-4.65.63-1.15.14-2.33.26-3.46.37-1.11.11-2.27.23-3.4.37-.97.12-1.96.27-2.91.42-1.22.19-2.47.38-3.72.52-.74.08-1.49.14-2.24.14ZM100.67,9.25s-.04.02-.06.03c-.1.02-.19.05-.29.08-.23.07-.47.14-.72.16-.66.04-1.33.07-1.98.1-.93.04-1.89.08-2.83.16-2.72.22-5.48.46-8.15.69-1.94.17-3.88.34-5.82.5-2,.17-4.04.32-6.02.46l-.37.03c-1.09.08-2.17.15-3.26.23-1.24.08-2.48.17-3.72.26-1.13.08-2.26.17-3.39.26-.92.07-1.83.15-2.75.22-2.21.17-4.42.32-6.62.48-1.14.08-2.29.16-3.43.24-1.14.08-2.29.16-3.43.24-.79.06-1.58.12-2.36.17-1.4.1-2.84.21-4.26.3-1.7.11-3.44.21-5.11.3-1.07.06-2.13.12-3.2.18-1.07.06-2.34.14-3.61.24-1.35.1-2.7.21-4.05.32-1.66.13-3.32.27-4.99.39-.72.06-1.46.1-2.16.14-.6.03-1.21.07-1.81.11-.25.02-.51.02-.76.03-.65.02-1.26.03-1.82.22-4.49,1.51-6.67,4.42-6.67,8.9-.05,43.93-.04,88.59-.03,131.79v14.04s0,.25,0,.25c0,1.07,0,2.18.27,3.17l.06.21c.32,1.2.63,2.33,1.71,3.22,2.2,1.8,4.7,1.7,7.08,1.45,1.24-.13,2.49-.33,3.7-.51.96-.15,1.95-.3,2.92-.42,1.13-.14,2.29-.26,3.41-.37,1.13-.11,2.31-.23,3.45-.37,1.55-.19,3.12-.42,4.64-.63,1.32-.19,2.69-.38,4.03-.56,1.38-.18,2.78-.34,4.14-.49,1.03-.12,2.06-.23,3.09-.36,1.45-.18,2.92-.37,4.34-.56.72-.09,1.44-.19,2.16-.28l1.17-.15c1.17-.15,2.35-.31,3.52-.45,2.72-.33,4.98-.6,7.11-.84.64-.07,1.29-.14,1.93-.2.87-.09,1.76-.18,2.64-.29.92-.12,1.85-.26,2.75-.39.73-.11,1.46-.22,2.18-.32,1.21-.16,2.45-.32,3.64-.46l1.18-.14c2.17-.27,4.35-.53,6.52-.8l1.43-.18c1.28-.16,2.56-.31,3.85-.47.9-.11,1.8-.21,2.7-.32.82-.1,1.65-.19,2.47-.29.62-.07,1.26-.12,1.88-.17,1.37-.1,2.79-.21,4.08-.61,3.71-1.15,5.84-3.98,5.85-7.78.04-46.14.03-93.05.02-138.42v-5.24c0-.77-.08-1.53-.24-2.23-.63-2.82-3.06-4.97-5.92-5.23-.04,0-.07-.01-.1-.03Z"/>
        <path d="M225.55,159.33s-.09-.01-.14-.04c-.11-.08-.14-.23-.06-.33.88-1.28,1.77-2.56,2.66-3.84,1.94-2.8,3.94-5.7,5.89-8.56,2.84-4.17,5.72-8.42,8.5-12.53,1.38-2.04,2.77-4.09,4.15-6.13.76-1.12,1.26-2.09,1.28-3.24l.03-2.15c.04-2.65.08-5.39.09-8.08,0-22.23,0-44.46,0-66.7v-20.25c0-.09,0-.19.01-.28.01-.18.02-.35-.02-.49l-.05-.17c-.19-.69-.34-1.08-1.04-1.11-3.68-.17-7.43-.38-11.05-.57l-2.56-.14c-.57-.03-1.13-.07-1.7-.1-.75-.05-1.52-.1-2.28-.13-3.49-.16-7.45-.34-11.32-.48-1.56-.06-3.14-.1-4.67-.14-1.25-.03-2.51-.07-3.76-.11-1.57-.05-3.3-.13-5.42-.24-1.67-.09-3.34-.18-5.01-.27-2.78-.15-5.65-.31-8.47-.44-1.84-.09-3.71-.14-5.52-.18-.81-.02-1.62-.04-2.42-.07-.08,0-.15,0-.23,0-.09,0-.17,0-.26,0-.86-.03-1.72-.06-2.58-.09l-.91-.03c-.13,0-.24-.12-.23-.25s.11-.24.25-.23l.91.03c.86.03,1.72.06,2.58.09.08,0,.16,0,.23,0,.08,0,.16,0,.25,0,.81.02,1.61.05,2.42.07,1.81.05,3.69.1,5.53.18,2.83.13,5.7.29,8.48.44,1.67.09,3.34.18,5.01.27,2.12.11,3.84.19,5.41.24,1.25.04,2.5.08,3.76.11,1.53.04,3.12.08,4.67.14,3.87.14,7.83.32,11.32.48.76.03,1.54.08,2.28.13.56.04,1.13.07,1.69.1l2.56.14c3.62.2,7.36.4,11.05.57,1.09.05,1.31.83,1.48,1.46l.05.17c.06.22.05.44.03.66,0,.08-.01.17-.01.25v20.25c0,22.23,0,44.46,0,66.7,0,2.7-.04,5.44-.09,8.09l-.03,2.15c-.02,1.41-.71,2.55-1.36,3.5-1.38,2.04-2.77,4.09-4.15,6.13-2.78,4.11-5.66,8.36-8.5,12.53-1.95,2.86-3.95,5.76-5.89,8.56-.89,1.28-1.77,2.56-2.65,3.84-.05.07-.12.1-.2.1Z"/>
        <path d="M217.24,160.41s-.07,0-.11-.03c-.13-.07-.26-.14-.39-.22-.26-.15-.5-.3-.75-.34-1.28-.24-2.59-.45-3.85-.65-.68-.11-1.36-.22-2.04-.33-1.17-.2-2.34-.39-3.51-.58-3.55-.59-7.22-1.2-10.83-1.83-2.75-.48-5.54-1-8.24-1.5-1.19-.22-2.37-.44-3.56-.66-1.08-.2-2.16-.4-3.25-.6-2.37-.44-4.82-.89-7.23-1.32-1.4-.25-2.83-.48-4.22-.71-1.46-.24-2.97-.49-4.45-.75-1.05-.19-2.12-.41-3.15-.62-.94-.19-1.92-.39-2.88-.57-2.57-.47-5.14-.89-7.1-1.21-.91-.15-1.84-.28-2.74-.41-1.19-.17-2.43-.35-3.64-.56-1.63-.28-3.27-.59-4.87-.89-1.4-.26-2.86-.53-4.29-.79-1.35-.24-2.73-.46-4.06-.68-1.51-.25-3.07-.5-4.61-.78-1.23-.22-2.47-.47-3.67-.7-1.68-.33-3.41-.67-5.12-.95-2.27-.37-3.33-1.56-3.33-3.75,0-3.81,0-7.63,0-11.44v-21.48c0-23.43,0-47.65-.04-71.48,0-1.96.94-3.35,2.74-4.04,3.62-1.38,7.33-2.69,10.92-3.95,1.54-.54,3.07-1.08,4.61-1.63,1.14-.41,2.29-.82,3.43-1.24,2.39-.87,4.85-1.76,7.3-2.59,1.33-.45,2.76-.88,4.3-.78,4.38.29,8.8.53,13.12.73,1.75.08,3.54.12,5.27.16,1.27.03,2.59.06,3.88.11.32.01.61.12.9.23.12.05.24.09.37.13.13.04.2.17.16.3-.04.13-.17.2-.3.16-.13-.04-.26-.09-.4-.14-.26-.1-.51-.19-.75-.2-1.29-.05-2.61-.08-3.88-.11-1.73-.04-3.52-.08-5.28-.16-4.33-.2-8.75-.44-13.13-.73-1.46-.1-2.83.32-4.11.75-2.44.82-4.91,1.72-7.29,2.59-1.14.42-2.29.83-3.43,1.24-1.53.55-3.07,1.09-4.61,1.63-3.59,1.26-7.29,2.57-10.9,3.95-1.61.62-2.43,1.82-2.43,3.59.04,23.83.04,48.05.04,71.48v21.48c0,3.81,0,7.63,0,11.44,0,1.94.9,2.95,2.92,3.28,1.72.28,3.46.62,5.14.95,1.2.24,2.44.48,3.66.7,1.53.27,3.09.53,4.6.78,1.33.22,2.71.44,4.07.68,1.43.25,2.89.52,4.29.79,1.59.3,3.24.61,4.86.89,1.2.21,2.44.39,3.63.56.9.13,1.83.27,2.75.41,1.96.32,4.54.74,7.11,1.21.97.18,1.94.38,2.89.57,1.03.21,2.09.43,3.14.62,1.48.26,2.99.51,4.44.75,1.39.23,2.82.46,4.22.71,2.41.43,4.86.88,7.23,1.32,1.08.2,2.16.4,3.25.6,1.19.22,2.37.44,3.56.66,2.7.5,5.49,1.02,8.24,1.5,3.6.63,7.27,1.24,10.82,1.83,1.17.19,2.34.39,3.51.58.68.11,1.36.22,2.04.33,1.27.2,2.58.41,3.86.65.33.06.63.24.91.4.12.07.24.14.36.2s.17.2.11.32c-.04.08-.13.13-.22.13Z"/>
        <path d="M228.32,136.21c-.12,0-.23-.09-.24-.22-.01-.14-.03-.28-.04-.41-.04-.3-.07-.62-.07-.93,0-29.62,0-59.25,0-88.75v-7l-1-1.32-8.29-.59c-.13,0-.23-.12-.22-.26,0-.13.13-.23.26-.22l8.4.6c.07,0,.13.04.17.09l1.12,1.48s.05.09.05.15v7.08c0,29.5,0,59.13,0,88.75,0,.29.03.57.07.88.02.14.03.28.05.43.01.13-.09.25-.22.26,0,0-.01,0-.02,0Z"/>
        <path d="M206.17,131.59s-.02,0-.03,0c-.51-.06-1.05-.12-1.6-.19-1.32-.15-2.69-.31-4.07-.51-1.02-.15-2.04-.33-3.04-.5-.86-.15-1.75-.31-2.63-.44-.9-.14-1.81-.25-2.7-.37-.89-.11-1.81-.23-2.72-.37-1.23-.19-2.47-.4-3.68-.6-1.2-.2-2.45-.41-3.67-.59-.9-.14-1.82-.25-2.71-.37-.89-.11-1.81-.23-2.71-.37-.97-.15-1.95-.32-2.9-.48-.91-.16-1.84-.32-2.77-.46-.89-.14-1.81-.26-2.69-.37-.85-.11-1.74-.23-2.61-.36-.93-.14-1.86-.3-2.77-.46-.99-.17-2.01-.34-3.01-.49-.9-.14-1.83-.25-2.72-.36-.92-.12-1.88-.23-2.82-.38-1.01-.15-2.03-.33-3.02-.5-.87-.15-1.76-.31-2.65-.45-.85-.13-1.72-.25-2.55-.36-.86-.12-1.75-.24-2.62-.37-1.47-.23-2.97-.48-4.42-.73-.94-.16-1.87-.32-2.81-.47-1.62-.26-3.23-.52-4.85-.78l-1.17-.19c-2.5-.4-3.62-.3-4.55,2.37-.04.13-.18.19-.31.15-.13-.04-.19-.18-.15-.31,1.08-3.09,2.64-3.07,5.08-2.69l1.17.19c1.62.26,3.24.51,4.86.78.94.15,1.88.31,2.81.47,1.45.24,2.94.5,4.41.73.87.14,1.75.26,2.61.37.84.11,1.71.23,2.56.36.89.14,1.79.3,2.66.45.98.17,2,.35,3,.5.93.14,1.88.26,2.8.37.9.11,1.82.23,2.73.36,1.01.15,2.03.33,3.02.49.91.15,1.84.31,2.76.46.86.13,1.74.25,2.6.36.89.12,1.8.24,2.7.38.93.14,1.87.31,2.77.47.95.17,1.92.34,2.89.48.9.14,1.81.25,2.7.37.89.11,1.81.23,2.72.37,1.23.19,2.47.4,3.68.6,1.2.2,2.45.41,3.67.59.9.14,1.82.25,2.71.37.89.11,1.81.23,2.71.37.88.13,1.78.29,2.64.44.99.17,2.01.36,3.02.5,1.37.2,2.74.36,4.06.51.51.06,1.01.12,1.49.17l10.99-10.36c.1-.09.25-.09.34,0,.09.1.09.25,0,.34l-11.07,10.44s-.1.07-.17.07Z"/>
        <path d="M222.85,141.26c-.07,0-.14,0-.21,0-.74-.03-1.52-.11-2.32-.24-1.56-.25-3.13-.51-4.69-.77-2.29-.38-4.66-.78-6.99-1.14-1.63-.25-3.29-.48-4.9-.71-1.71-.24-3.48-.48-5.21-.76-2.21-.35-4.45-.73-6.61-1.09-2.1-.35-4.26-.72-6.4-1.06-1.8-.28-3.63-.55-5.4-.8-1.74-.25-3.55-.51-5.32-.78-1.98-.31-3.98-.65-5.92-.98-2.08-.35-4.24-.72-6.36-1.05-3.53-.55-7.13-1.09-10.61-1.62-3.55-.53-7.22-1.09-10.82-1.65-3.56-.55-7.17-1.15-10.66-1.72-1.87-.31-3.73-.61-5.6-.92-2.08-.34-4.15-.67-6.23-1l-2.8-.45c-.13-.02-.22-.14-.2-.28s.14-.22.28-.2l2.8.45c2.08.33,4.15.66,6.23,1,1.87.3,3.74.61,5.6.92,3.49.57,7.1,1.17,10.65,1.72,3.6.56,7.27,1.11,10.82,1.65,3.48.52,7.08,1.07,10.61,1.62,2.13.33,4.28.7,6.37,1.05,1.94.33,3.94.67,5.92.98,1.77.28,3.57.54,5.31.78,1.77.25,3.61.51,5.41.8,2.14.34,4.31.7,6.4,1.06,2.16.37,4.4.74,6.6,1.09,1.73.27,3.49.52,5.2.75,1.61.22,3.28.45,4.91.71,2.34.36,4.7.76,7,1.14,1.56.26,3.12.52,4.69.77.78.13,1.54.2,2.26.24,1.2.05,2.14-.36,2.8-1.23,1.32-1.72,2.66-3.49,3.94-5.19.93-1.24,1.87-2.48,2.81-3.71,2.65-3.48,5.3-6.95,7.96-10.42l2.16-2.83c.25-.32.51-.65.77-.96.57-.69,1.15-1.4,1.57-2.17.32-.59.48-1.41.48-2.51.02-12.95.02-26.12.02-38.85,0-8.97,0-17.93,0-26.9,0-3.97.04-8,.07-11.89.02-1.82.03-3.63.04-5.45,0-.13.11-.24.24-.24h0c.13,0,.24.11.24.24-.01,1.82-.03,3.63-.04,5.45-.03,3.9-.07,7.93-.07,11.89,0,8.97,0,17.93,0,26.9,0,12.73,0,25.9-.02,38.85,0,1.18-.18,2.08-.54,2.74-.44.81-1.04,1.54-1.62,2.25-.25.31-.51.62-.76.94l-2.16,2.83c-2.65,3.47-5.31,6.94-7.95,10.42-.94,1.23-1.87,2.47-2.81,3.71-1.29,1.71-2.62,3.47-3.95,5.2-.71.93-1.75,1.42-3,1.42Z"/>
        <path d="M202.05,128.2s-.02,0-.04,0l-65.97-9.86c-.11-.02-.19-.1-.2-.21l-.26-2.37c-.01-.13.08-.25.21-.27.13-.01.25.08.27.21l.24,2.18,65.67,9.81,15.28-13.61-.14-2.32c0-.13.09-.25.23-.26.14,0,.25.09.26.23l.15,2.44c0,.07-.02.15-.08.19l-15.45,13.76s-.1.06-.16.06Z"/>
        <path d="M201.84,125.47s-.03,0-.04,0c-.46-.08-.93-.16-1.4-.25-1.08-.19-2.19-.4-3.31-.56-.94-.14-1.89-.26-2.82-.37-.93-.11-1.89-.23-2.84-.37-.99-.15-1.98-.32-2.95-.48-.93-.16-1.89-.32-2.83-.47-.95-.14-1.92-.26-2.85-.38-.88-.11-1.79-.22-2.68-.36-.99-.14-1.99-.31-2.95-.47-1.01-.16-2.05-.34-3.07-.48-1.25-.18-2.52-.34-3.76-.49-.63-.08-1.27-.16-1.9-.24-.5-.06-1-.13-1.5-.19-1.33-.17-2.7-.34-4.04-.54-1.59-.23-3.2-.5-4.75-.77l-1.15-.19c-.69-.11-1.38-.24-2.07-.36-1.18-.21-2.39-.42-3.59-.6-1.07-.16-2.17-.3-3.23-.43-.77-.1-1.54-.19-2.31-.3-1.78-.25-3.68-.52-5.78-.84-.84-.13-1.68-.27-2.5-.41-.37-.06-.74-.13-1.11-.19-.13-.02-.22-.15-.2-.28.02-.13.15-.22.28-.2.37.06.74.13,1.12.19.82.14,1.66.28,2.49.41,2.11.32,4,.6,5.78.84.77.11,1.53.2,2.3.3,1.06.13,2.16.27,3.24.43,1.2.18,2.42.39,3.6.6.69.12,1.37.24,2.06.35l1.16.19c1.55.26,3.16.53,4.74.76,1.34.2,2.71.37,4.03.54.5.06,1,.13,1.5.19.63.08,1.26.16,1.9.24,1.24.15,2.51.31,3.77.49,1.03.15,2.07.32,3.08.49.96.16,1.96.32,2.94.47.89.13,1.8.24,2.67.35.94.12,1.91.24,2.86.38.95.14,1.91.31,2.84.47.96.17,1.96.34,2.94.48.94.14,1.9.26,2.83.37.93.11,1.89.23,2.83.37,1.12.17,2.24.37,3.33.56.43.08.86.15,1.28.23l15.47-13.7v-61.64c0-.86,0-1.73.01-2.59.02-1.99.03-4.05-.04-6.07-.08-2.2.48-3.87,1.78-5.23.09-.1.24-.1.34,0,.1.09.1.24,0,.34-1.2,1.27-1.73,2.82-1.65,4.88.08,2.03.06,4.09.04,6.09,0,.86-.01,1.73-.01,2.59v61.75c0,.07-.03.13-.08.18l-15.64,13.85s-.1.06-.16.06Z"/>
        <path d="M125.12,125.85s0,0-.01,0c-.13,0-.24-.12-.23-.25.01-.28.03-.57.05-.85.04-.63.08-1.27.06-1.9-.01-.5-.06-1-.11-1.5-.05-.58-.11-1.17-.11-1.76-.01-21-.01-42.35-.01-63v-11.78c0-.13.11-.24.24-.24s.24.11.24.24v11.78c0,20.65,0,42,.01,63,0,.57.06,1.15.11,1.72.05.5.1,1.02.11,1.53.02.65-.02,1.31-.06,1.94-.02.28-.03.56-.05.84,0,.13-.11.23-.24.23Z"/>
        <path d="M130.9,118.63c-.12,0-.23-.09-.24-.22-.01-.13-.03-.25-.04-.38-.04-.28-.07-.56-.07-.85,0-3.03,0-6.06,0-9.09v-13.12c0-16.28,0-32.56,0-48.85,0-1.02.17-2.11,1.39-3.16.05-.04.11-.06.17-.06.39.03.79.06,1.21.1.98.08,1.99.17,3.02.22,1.62.08,3.28.16,4.87.23,1.8.08,3.65.16,5.48.26,1.49.08,3.01.19,4.47.3.84.06,1.68.12,2.52.18,1.74.12,3.48.23,5.22.34l2.24.14c.13,0,.23.12.22.26,0,.13-.12.23-.26.22l-2.24-.14c-1.74-.11-3.48-.22-5.22-.34-.84-.06-1.68-.12-2.52-.18-1.46-.11-2.97-.22-4.46-.3-1.82-.1-3.68-.18-5.48-.26-1.6-.07-3.25-.15-4.88-.23-1.04-.05-2.05-.14-3.04-.22-.38-.03-.75-.06-1.11-.09-.95.85-1.15,1.7-1.15,2.73,0,16.28,0,32.56,0,48.85v13.12c0,3.03,0,6.06,0,9.08,0,.26.03.52.07.79.02.13.03.26.05.39.01.13-.08.25-.22.26,0,0-.02,0-.02,0Z"/>
        <path d="M181.11,115.74c-.13,0-.24-.11-.24-.24v-33.17l-2.83-.27c-3.47-.33-6.89-.66-10.31-1-.33-.03-.67-.09-.99-.14-.19-.03-.39-.07-.58-.09-1.23-.18-2.33.2-3.6.81-3.08,1.48-6.35,3.02-10,4.69-.33.15-.71.2-1.14.25-.22.03-.46.06-.72.1-.08.01-.17-.02-.22-.08-.06-.06-.07-.15-.05-.23.12-.38.1-.78.08-1.16-.04-.68-.07-1.39.74-1.94.11-.07.26-.05.33.07.07.11.05.26-.07.33-.59.39-.56.86-.53,1.51.02.3.03.62-.02.96.14-.02.27-.04.39-.05.41-.05.73-.09,1-.21,3.65-1.68,6.92-3.21,9.99-4.69,1.35-.65,2.53-1.05,3.88-.85.2.03.4.06.6.1.31.05.64.11.96.14,3.42.34,6.84.67,10.31,1l3.05.29c.12.01.22.12.22.24v33.39c0,.13-.11.24-.24.24Z"/>
        <path d="M232.53,107.31c-.13,0-.24-.1-.24-.23-.03-.75-.06-1.5-.09-2.25-.07-1.59-.14-3.24-.14-4.87-.02-10.61-.01-21.39-.01-31.82v-10.68c0-.76,0-1.52,0-2.28,0-1.78,0-3.62,0-5.42.01-1.37.25-2.92,1.88-4.07,2.09-1.47,4.16-3.05,6.16-4.57.84-.64,1.68-1.27,2.52-1.9.11-.08.26-.06.34.05.08.11.06.26-.05.34-.84.63-1.68,1.27-2.52,1.9-2.01,1.52-4.08,3.1-6.18,4.58-1.16.82-1.66,1.92-1.68,3.68-.02,1.81-.01,3.64,0,5.42,0,.76,0,1.52,0,2.29v10.68c0,10.43,0,21.22.01,31.82,0,1.61.07,3.26.14,4.85.03.75.06,1.5.09,2.25,0,.13-.1.24-.23.25,0,0,0,0,0,0Z"/>
        <path d="M232.41,114.41c-.13,0-.24-.11-.24-.24v-6.78c0-.07.03-.13.08-.18l4.5-4.13v-7.94c0-16.62,0-33.24,0-49.85,0-.26-.03-.52-.07-.79-.02-.13-.03-.26-.05-.39-.01-.13.08-.25.22-.26.14-.01.25.08.26.22.01.13.03.25.04.38.04.28.07.56.07.85,0,16.62,0,33.24,0,49.85v8.05c0,.07-.03.13-.08.18l-4.5,4.13v6.67c0,.13-.11.24-.24.24ZM236.99,103.19h0,0Z"/>
        <path d="M39.35,119.34c-.46,0-.87-.15-1.19-.45-.38-.35-.59-.87-.59-1.47-.01-2.92-.01-5.88,0-8.79,0-1.17.8-2.12,1.89-2.27,1.61-.22,3.21-.37,4.71-.49.98-.08,1.98-.15,2.95-.22,1.17-.08,2.37-.17,3.55-.28.77-.07,1.55-.19,2.31-.31.35-.05.7-.11,1.05-.16.03,0,.06,0,.09,0,.04,0,.07-.01.11,0,1.99.44,2.19,1.97,2.14,3.26-.06,1.6-.05,3.23-.03,4.8,0,.68.01,1.37.01,2.05,0,2.08-.96,3.05-3.12,3.15-1.74.07-3.5.23-5.21.39l-.92.08c-.99.09-1.97.18-2.96.28-1.52.15-3.09.3-4.63.42-.05,0-.11,0-.16,0ZM54.13,105.37s-.02,0-.03,0c-.35.05-.7.1-1.05.16-.76.12-1.55.24-2.34.31-1.19.11-2.39.19-3.56.28-.96.07-1.96.14-2.94.22-1.49.13-3.08.27-4.68.49-.85.12-1.47.87-1.47,1.8-.01,2.92-.01,5.87,0,8.79,0,.46.16.86.44,1.12.25.23.59.34.99.31,1.54-.11,3.11-.27,4.62-.42.99-.1,1.98-.2,2.96-.28l.92-.08c1.71-.15,3.49-.31,5.24-.39,1.89-.08,2.66-.85,2.66-2.67,0-.68,0-1.36-.01-2.05-.01-1.58-.03-3.22.03-4.83.06-1.7-.43-2.48-1.76-2.77,0,0,0,0,0,0Z"/>
        <path d="M233.73,27.59s-.01,0-.02,0c-.65-.05-1.31-.1-1.96-.16-1.45-.12-2.94-.24-4.42-.31-1.27-.06-2.56-.1-3.81-.13-1.24-.03-2.52-.07-3.78-.13-2.49-.12-5.02-.27-7.46-.41-1.73-.1-3.46-.2-5.18-.3-1.61-.09-3.24-.15-4.82-.21l-.83-.03c-1.56-.06-3.11-.12-4.67-.18-2.61-.1-5.32-.2-7.97-.31-2.28-.1-4.59-.21-6.83-.33-1.02-.05-2.03-.1-3.05-.15-.13,0-.24-.12-.23-.25,0-.13.12-.23.25-.23,1.02.05,2.03.1,3.05.15,2.24.11,4.55.23,6.82.33,2.66.11,5.36.21,7.97.31,1.56.06,3.12.12,4.67.18l.83.03c1.58.06,3.22.12,4.83.21,1.73.09,3.46.19,5.18.3,2.44.14,4.97.29,7.46.41,1.25.06,2.53.1,3.77.13,1.25.03,2.54.07,3.82.13,1.48.07,2.98.2,4.43.32.65.05,1.3.11,1.96.16.13,0,.23.13.22.26,0,.13-.12.22-.24.22Z"/>
        <path d="M144.86,98.64c-.12,0-.23-.09-.24-.22-.01-.14-.03-.28-.04-.42-.04-.3-.07-.62-.07-.93,0-15.69,0-31.39,0-47.08v-5.78c0-.13.11-.24.24-.24s.24.11.24.24v5.78c0,15.69,0,31.39,0,47.08,0,.29.03.57.07.88.02.14.03.29.05.43.01.13-.09.25-.22.26,0,0-.01,0-.02,0Z"/>
        <path d="M194.48,22.77c-.13,0-.23-.1-.24-.23-.01-.21-.03-.43-.04-.64-.03-.46-.06-.94-.08-1.41-.08-2.93-.64-5.98-1.72-9.31-.75-2.31-1.72-4.68-3.74-6.4-2.56-2.19-5.09-2.3-7.51-.35-1.39,1.12-2.09,2.76-2.69,4.35-1.48,3.94-1.58,8.08-1.68,12.08,0,.24,0,.47,0,.75,0,.14,0,.29,0,.45,0,.13-.11.24-.24.24h-2.41c-.13,0-.24-.11-.24-.24,0-.25,0-.49,0-.71,0-.46,0-.9,0-1.33-.05-2.45-.02-5.68.73-8.85.63-2.69,1.48-5.51,3.41-7.93,2.51-3.13,6.89-4.12,10.43-2.36,3.62,1.81,5.28,5.15,6.32,7.87,1.73,4.52,2.56,9.16,2.47,13.8,0,.13-.11.24-.24.24h0c-.13,0-.24-.11-.24-.25.09-4.58-.73-9.16-2.44-13.62-1.01-2.63-2.61-5.87-6.09-7.61-3.33-1.66-7.47-.73-9.84,2.23-1.88,2.34-2.7,5.1-3.32,7.74-.73,3.12-.76,6.31-.71,8.73,0,.44,0,.88,0,1.34,0,.15,0,.31,0,.47h1.93c0-.07,0-.14,0-.21,0-.28,0-.52,0-.76.1-4.04.2-8.22,1.71-12.24.62-1.65,1.35-3.36,2.84-4.56,2.59-2.09,5.4-1.96,8.13.36,2.11,1.8,3.11,4.25,3.89,6.62,1.1,3.38,1.67,6.47,1.74,9.45.01.46.04.94.08,1.39.01.21.03.43.04.64,0,.13-.09.25-.23.25,0,0,0,0-.01,0Z"/>
        <path d="M201.34,83.95c-.13,0-.24-.11-.24-.24v-16.43c-.28-.05-.54-.1-.8-.14-.64-.12-1.19-.22-1.75-.27-1.01-.09-2.05-.16-3.05-.22-1.21-.08-2.46-.16-3.69-.28-1.52-.14-3.06-.32-4.55-.48-1.39-.16-2.83-.32-4.24-.46-.86-.08-1.85-.1-2.75.43-2.75,1.63-5.51,3.25-8.27,4.88-5.18,3.06-10.55,6.22-15.81,9.35-1.02.61-2.01,1.32-2.97,2.01-.45.33-.9.65-1.36.97-.11.08-.26.05-.34-.06-.08-.11-.05-.26.06-.34.46-.32.9-.64,1.35-.97.97-.7,1.96-1.42,3-2.04,5.26-3.13,10.62-6.29,15.81-9.35,2.76-1.62,5.51-3.25,8.27-4.88,1.01-.6,2.1-.59,3.04-.5,1.42.14,2.86.3,4.25.46,1.49.17,3.03.34,4.54.48,1.22.12,2.47.2,3.68.28,1,.07,2.04.14,3.06.22.58.05,1.15.15,1.8.28.31.06.64.12.99.18.12.02.2.12.2.24v16.64c0,.13-.11.24-.24.24Z"/>
        <path d="M189.06,38.43c-.13,0-.24-.11-.24-.24v-4.43c0-.07.03-.13.08-.18.05-.05.12-.07.19-.06.4.04.77.09,1.13.13.73.09,1.35.16,1.99.2,3.41.21,6.24.36,8.91.48,2.75.13,5.55.24,8.26.35,1.1.04,2.2.09,3.29.13.55.02,1.09.04,1.64.07,1.4.05,2.84.11,4.27.19.27.01.51.12.75.22.06.03.13.06.19.08l3.09-1.71c2.58-1.43,5.25-2.91,7.88-4.35.99-.54,2-1.07,2.98-1.58.45-.24.91-.47,1.36-.71.12-.06.26-.02.33.1.06.12.02.26-.1.33-.45.24-.91.48-1.36.71-.98.51-1.99,1.04-2.97,1.58-2.63,1.45-5.3,2.92-7.88,4.35l-3.19,1.77c-.06.03-.13.04-.2.02-.11-.04-.22-.09-.32-.13-.21-.09-.4-.18-.58-.19-1.42-.08-2.86-.13-4.26-.19-.55-.02-1.09-.04-1.64-.07-1.1-.05-2.2-.09-3.29-.13-2.71-.11-5.51-.22-8.27-.35-2.67-.12-5.5-.28-8.91-.48-.65-.04-1.28-.11-2.02-.2-.27-.03-.56-.07-.86-.1v4.16c0,.13-.11.24-.24.24Z"/>
        <path d="M151.37,83.85s-.1-.01-.14-.04c-.06-.05-.1-.12-.1-.2v-12.46c0-7.02,0-14.03,0-21.05,0-1.29.04-2.61.07-3.88.02-.6.03-1.19.04-1.79,0-.13.12-.23.25-.24.13,0,.24.11.24.25-.01.6-.03,1.19-.04,1.79-.03,1.27-.07,2.58-.07,3.87,0,7.02,0,14.03,0,21.05v12.11c.29-.1.58-.2.85-.3.77-.27,1.49-.52,2.18-.82,1.59-.7,3.19-1.43,4.75-2.13,1.41-.64,2.86-1.3,4.29-1.94.47-.21,1-.3,1.44-.26,1.36.14,2.74.31,4.07.47,1.31.16,2.67.32,4,.47,1.42.15,2.87.28,4.28.4.82.07,1.64.14,2.46.22.26.02.52.07.77.12.08.02.16.03.25.05l4.2-2.63c3.86-2.41,7.74-4.84,11.61-7.27.89-.56,1.78-1.15,2.64-1.72.4-.27.81-.54,1.21-.8.11-.07.26-.04.33.07.07.11.04.26-.07.33-.4.27-.81.53-1.21.8-.86.57-1.76,1.17-2.65,1.73-3.87,2.43-7.75,4.85-11.61,7.27l-4.28,2.67s-.11.04-.17.03c-.11-.02-.23-.04-.35-.06-.24-.04-.48-.09-.73-.11-.82-.08-1.64-.15-2.46-.22-1.41-.12-2.86-.25-4.29-.4-1.34-.14-2.7-.31-4.01-.47-1.33-.16-2.71-.33-4.06-.47-.36-.04-.8.04-1.19.22-1.43.64-2.89,1.3-4.29,1.93-1.55.71-3.16,1.44-4.75,2.14-.7.31-1.44.57-2.21.84-.37.13-.76.26-1.17.41-.03,0-.05.01-.08.01Z"/>
        <path d="M155.7,80.09c-.12,0-.23-.09-.24-.22-.01-.14-.03-.28-.04-.42-.04-.3-.07-.62-.07-.93,0-9.67,0-19.34,0-29v-4.83c0-.13.11-.24.24-.24s.24.11.24.24v4.83c0,9.67,0,19.34,0,29,0,.29.03.57.07.88.02.14.03.28.05.43.01.13-.09.25-.22.26,0,0-.01,0-.02,0Z"/>
        <path d="M197.06,116.93c-.36,0-.71-.05-1.06-.11-1.28-.21-2.55-.42-3.83-.63-1.41-.23-2.83-.46-4.24-.7-.98-.17-1.97-.35-2.92-.53-.43-.08-.87-.16-1.3-.24-.11-.02-.2-.12-.2-.24v-2.24c0-1.31,0-2.63,0-3.94,0-3.8,0-7.73-.02-11.59,0-1.06.57-1.59,1.2-2.01,4.23-2.83,8.46-5.67,12.64-8.48l3.76-2.53s.11-.05.17-.04l11.8,1.71c.11.02.2.11.21.23l.11,2.26c0,.08-.03.16-.09.2l-.85.64s.08.09.08.16c.01.12.03.25.04.37.04.28.07.56.07.85,0,3.94,0,7.87,0,11.98v3.29c0,.08-.04.16-.11.2-.02,0-.04.03-.08.05-.11.06-.32.18-.5.33-1.01.8-2.03,1.6-3.04,2.41-3.23,2.55-6.58,5.2-9.82,7.85-.7.57-1.38.73-2.05.73ZM184,114.29c.36.07.73.13,1.1.2.95.18,1.94.36,2.91.52,1.41.24,2.82.47,4.24.7,1.28.21,2.56.42,3.83.63,1.12.19,1.89.16,2.72-.53,3.24-2.66,6.59-5.3,9.83-7.86,1.01-.8,2.03-1.6,3.04-2.41.18-.15.38-.26.51-.34v-3.15c0-4.1,0-8.04,0-11.98,0-.26-.03-.52-.07-.79-.01-.1-.03-.2-.04-.3l-14.19,10.8c-.11.08-.26.06-.34-.05s-.06-.26.05-.34l15.33-11.66-.1-1.94-11.51-1.67-3.69,2.48c-4.18,2.81-8.41,5.65-12.64,8.48-.62.41-1,.82-.99,1.61.02,3.87.02,7.8.02,11.6,0,1.31,0,2.63,0,3.94v2.04Z"/>
        <path d="M179.07,59.15c-.16,0-.33,0-.51-.02-.62-.06-1.25-.14-1.86-.22-.69-.09-1.41-.19-2.11-.24-.96-.07-1.94-.11-2.89-.15-.79-.03-1.6-.06-2.4-.11-.85-.05-1.72-.14-2.55-.23-.44-.04-.87-.09-1.31-.13l-.34-.03c-.4-.04-.81-.08-1.21-.08-1.82-.02-2.75-.95-2.76-2.77,0-1.66,0-3.35,0-4.98,0-.71,0-1.42,0-2.13,0-1.32,0-2.64,0-3.96,0-3.2.02-6.51-.03-9.77-.03-2.3.78-3.53,2.71-4.12.83-.25,1.63-.64,2.42-1.01.54-.26,1.1-.52,1.67-.75.9-.36,2.1-.69,3.31-.13.12.06.17.2.12.32-.06.12-.2.17-.32.12-1.05-.48-2.07-.2-2.94.14-.55.22-1.11.48-1.64.73-.8.38-1.62.77-2.48,1.03-1.71.52-2.4,1.58-2.37,3.65.05,3.26.04,6.57.03,9.78,0,1.32,0,2.64,0,3.95,0,.71,0,1.42,0,2.13,0,1.63,0,3.32,0,4.97,0,1.57.71,2.28,2.29,2.29.42,0,.84.05,1.25.09l.34.03c.44.04.87.08,1.31.13.83.08,1.69.17,2.54.22.8.05,1.61.08,2.39.11.95.04,1.94.08,2.91.15.72.05,1.44.15,2.14.24.6.08,1.22.16,1.84.22,1.54.14,2.24-.31,2.5-1.61.04-.18.03-.38.02-.59,0-.11-.01-.21-.01-.32v-5.32c0-5.41,0-10.82,0-16.23,0-1.38.53-2.2,1.7-2.66,1.23-.48,2.45-1.07,3.63-1.64.51-.25,1.03-.49,1.54-.73.12-.06.26,0,.32.12.06.12,0,.26-.12.32-.51.24-1.03.49-1.54.73-1.19.57-2.42,1.16-3.66,1.65-.98.38-1.4,1.05-1.4,2.21,0,5.41,0,10.82,0,16.23v5.32c0,.1,0,.2.01.29.01.23.02.47-.02.72-.28,1.38-1.06,2.02-2.51,2.02Z"/>
        <path d="M185.81,56.13s-.03,0-.05,0c-.13-.03-.21-.16-.19-.29.05-.23.1-.46.15-.68.12-.52.24-1.06.31-1.59.07-.47.04-.97,0-1.51-.03-.39-.07-.79-.11-1.18-.05-.44-.09-.9-.12-1.35v-.06c-.05-.78-.08-1.34-.71-2.02-.53-.57-.76-1.5-.58-2.41.18-.97.78-1.76,1.64-2.16.09-.04.19-.03.26.04,1.15,1.01,2.52.96,3.96.92.77-.03,1.57-.05,2.34.09,1.36.25,2.8.26,4.19.27.71,0,1.44,0,2.15.04,2.52.12,5.08.27,7.56.41l1.12.06c2.58.15,5.35.31,8.07.49.35.02.69.09,1.02.15.15.03.3.06.45.08.13.02.22.15.2.28-.02.13-.15.22-.28.2-.15-.03-.31-.06-.46-.09-.33-.06-.64-.13-.96-.15-2.72-.18-5.48-.34-8.07-.49l-1.12-.06c-2.48-.14-5.04-.29-7.55-.41-.7-.03-1.43-.04-2.13-.04-1.41,0-2.87-.01-4.27-.27-.72-.13-1.49-.11-2.24-.08-1.43.05-2.9.1-4.17-.93-.64.36-1.09.99-1.23,1.75-.15.76.03,1.53.46,1.99.75.81.79,1.51.84,2.32v.06c.03.44.08.89.12,1.33.04.39.08.8.11,1.2.04.57.06,1.09,0,1.61-.08.55-.2,1.1-.32,1.63-.05.23-.1.45-.15.68-.02.11-.12.19-.24.19Z"/>
        <path d="M217.24,42.52s0,0-.01,0c-1.01-.05-2.03-.1-3.04-.14-2.32-.11-4.71-.22-7.07-.34-2.43-.13-5-.27-8.31-.48-1.61-.1-3.22-.21-4.83-.31-1.44-.1-2.88-.19-4.32-.28-.06,0-.15.02-.24.05-.06.02-.11.04-.17.05-.13.03-.26-.05-.29-.18-.03-.13.05-.26.18-.29.05-.01.09-.03.14-.04.12-.04.27-.09.42-.08,1.44.09,2.88.19,4.33.28,1.61.11,3.22.21,4.83.31,3.31.21,5.88.35,8.31.48,2.36.12,4.75.23,7.07.34,1.01.05,2.03.09,3.04.14.13,0,.24.12.23.25,0,.13-.11.23-.24.23Z"/>
        <path d="M189.06,43.97c-.13,0-.24-.11-.24-.24v-2.83h-1.63c-.13,0-.24-.11-.24-.24v-2.3c0-.07.03-.13.07-.17s.11-.07.18-.07c.49.02.95.04,1.41.06.95.04,1.85.08,2.75.14,2.16.13,4.31.26,6.47.4l4.79.3c3.43.21,6.87.42,10.3.63.99.06,1.98.11,2.97.17l1.36.07c.13,0,.23.12.23.25,0,.13-.12.23-.25.23l-1.36-.07c-.99-.05-1.98-.11-2.97-.17-3.43-.21-6.87-.42-10.3-.63l-4.79-.3c-2.16-.13-4.31-.27-6.47-.4-.89-.05-1.79-.09-2.74-.14-.38-.02-.76-.03-1.16-.05v1.81h1.63c.13,0,.24.11.24.24v3.07c0,.13-.11.24-.24.24Z"/>
        <path d="M217.24,48.54s-.01,0-.02,0c-.6-.05-1.19-.1-1.78-.15-1.31-.11-2.66-.23-3.99-.32-2.14-.15-4.33-.28-6.44-.41l-2.78-.17c-2.19-.13-4.45-.27-6.67-.39-1.76-.09-3.54-.16-5.27-.23-.75-.03-1.5-.06-2.24-.09l-1.85,1.25c-.11.07-.26.05-.33-.07-.07-.11-.05-.26.07-.33l1.92-1.29s.09-.04.14-.04c.77.03,1.55.06,2.32.1,1.73.07,3.52.14,5.28.23,2.23.11,4.49.25,6.68.39l2.78.17c2.11.13,4.29.26,6.44.41,1.33.09,2.69.21,4,.32.59.05,1.19.1,1.78.15.13.01.23.13.22.26-.01.13-.12.22-.24.22Z"/>
        <path d="M125,33.85c-.05,0-.11-.02-.15-.05-.1-.08-.12-.23-.04-.34l.9-1.12s.06-.06.1-.07l1.33-.5c.92-.35,1.81-.69,2.71-1.02l.92-.34c4.87-1.81,9.74-3.63,14.61-5.44.44-.16.89-.35,1.32-.53,1.11-.46,2.25-.93,3.43-1.1,1.71-.25,3.49-.17,5.21-.09.28.01.56.02.84.04,3.7.14,7.47.33,11.1.5,1.48.07,2.95.14,4.43.21.13,0,.24.12.23.25,0,.13-.12.24-.25.23-1.48-.07-2.96-.14-4.43-.21-3.64-.17-7.4-.35-11.1-.5-.28-.01-.56-.02-.84-.04-1.7-.07-3.45-.15-5.12.09-1.12.16-2.24.62-3.32,1.07-.44.18-.89.37-1.34.54-4.87,1.81-9.74,3.62-14.61,5.44l-.92.34c-.9.33-1.79.67-2.71,1.02l-1.27.48-.86,1.07c-.05.06-.12.09-.19.09Z"/>
        <path d="M232.41,130.55c-.06,0-.12-.02-.17-.07,0,0-.02-.01-.02-.02-.06-.04-.16-.13-.16-.27,0-4.54-.01-9.68,0-14.69,0-.43.04-.96.32-1.23,1.07-1.05,2.18-2.08,3.26-3.08.33-.31.66-.61.99-.92v-3.8c0-.13.11-.24.24-.24s.24.11.24.24v3.91c0,.07-.03.13-.08.18-.35.33-.71.66-1.07.99-1.07.99-2.18,2.02-3.25,3.07-.12.12-.18.42-.18.89-.02,4.98-.01,10.08,0,14.6.02.01.03.03.04.04.09.09.09.25,0,.34-.05.05-.11.07-.17.07ZM232.54,130.19h0,0Z"/>
        <path d="M181.23,82.26c-.08,0-.16-.04-.2-.11-.07-.11-.04-.26.07-.33,1.33-.85,2.65-1.7,3.98-2.55,3.19-2.05,6.5-4.17,9.75-6.23,1.39-.88,2.83-1.75,4.22-2.58.64-.38,1.28-.77,1.92-1.16.11-.07.26-.03.33.08.07.11.03.26-.08.33-.64.39-1.28.77-1.92,1.16-1.39.83-2.82,1.7-4.21,2.58-3.26,2.07-6.56,4.18-9.75,6.23-1.33.85-2.65,1.7-3.98,2.55-.04.03-.09.04-.13.04Z"/>
        <path d="M228.32,38.55s-.09-.01-.13-.04c-.11-.07-.14-.22-.07-.33l.95-1.46s.05-.06.08-.08c.9-.53,1.83-1.08,2.76-1.63,2.21-1.3,4.49-2.64,6.75-4.02,2.05-1.25,4.11-2.56,6.1-3.82.9-.57,1.79-1.14,2.69-1.7.11-.07.26-.04.33.08.07.11.04.26-.08.33-.9.57-1.79,1.13-2.69,1.7-1.99,1.27-4.06,2.58-6.11,3.83-2.27,1.38-4.55,2.73-6.76,4.03-.92.54-1.83,1.08-2.71,1.6l-.92,1.41c-.05.07-.12.11-.2.11Z"/>
        <path d="M166.06,96.59s-.02,0-.03,0l-7.53-.79c-.12-.01-.22-.12-.22-.24v-6.07c0-.13.11-.24.24-.24.15,0,.29,0,.43,0,.3,0,.58-.01.86.01,1.36.14,2.75.29,4.09.44l1.45.16c.13.01.23.13.21.27-.01.13-.13.23-.27.21l-1.45-.16c-1.34-.15-2.72-.3-4.08-.44-.25-.03-.52-.02-.8-.01-.06,0-.13,0-.2,0v5.61l7.31.77c.13.01.23.13.21.26-.01.12-.12.22-.24.22Z"/>
        <path d="M197.97,116.7c-.12,0-.23-.09-.24-.22-.01-.12-.03-.25-.04-.37-.04-.28-.07-.56-.07-.85,0-3.79,0-7.58,0-11.37v-4.09c-.08-.02-.17-.04-.24-.05-.27-.06-.51-.11-.75-.14-3.3-.44-6.59-.88-9.89-1.32l-2.75-.37c-.13-.02-.22-.14-.21-.27.02-.13.14-.22.27-.21l2.75.37c3.3.44,6.6.88,9.89,1.32.26.03.52.09.79.15.14.03.28.06.43.09.11.02.19.12.19.24v4.29c0,3.79,0,7.58,0,11.36,0,.26.03.52.07.79.02.13.03.26.05.39.01.13-.08.25-.22.26,0,0-.02,0-.02,0Z"/>
        <path d="M175.75,97.73s-.02,0-.03,0l-5.48-.6c-.12-.01-.21-.12-.21-.24v-5.75c-.91-.1-1.83-.24-2.72-.37-.43-.07-.86-.13-1.29-.19-.13-.02-.22-.14-.2-.27.02-.13.14-.22.27-.2.43.06.86.13,1.3.19.95.15,1.94.3,2.91.39,1.25.12,2.49.2,3.79.28.56.04,1.12.07,1.68.11.13,0,.22.11.22.24v6.17c0,.07-.03.13-.08.18-.04.04-.1.06-.16.06ZM170.51,96.67l5,.55v-5.68c-.49-.03-.97-.06-1.45-.09-1.22-.08-2.37-.15-3.54-.26v5.49Z"/>
        <path d="M129.69,119.83c-.08,0-.15-.04-.2-.11-.07-.11-.05-.26.06-.33.76-.51,1.52-1.03,2.28-1.55,1.7-1.16,3.46-2.35,5.19-3.51,2.31-1.54,4.84-3.2,7.71-5.06,1.69-1.1,3.42-2.2,5.1-3.27.75-.48,1.5-.96,2.25-1.43.11-.07.26-.04.33.07.07.11.04.26-.07.33-.75.48-1.5.96-2.25,1.43-1.67,1.07-3.4,2.17-5.09,3.26-2.87,1.86-5.39,3.52-7.7,5.06-1.74,1.16-3.49,2.35-5.19,3.51-.76.52-1.52,1.03-2.28,1.55-.04.03-.09.04-.13.04Z"/>
        <path d="M175.45,115.01s0,0-.01,0c-.13,0-.23-.12-.23-.25.01-.23.03-.46.04-.68.03-.48.07-.98.07-1.47,0-2.19,0-4.36,0-6.66v-2.34s-5.44-.52-5.44-.52c-.13-.01-.23-.13-.22-.26.01-.13.13-.23.26-.22l5.66.54c.12.01.22.12.22.24v2.56c0,2.29,0,4.46,0,6.66,0,.5-.04,1.01-.07,1.5-.02.23-.03.45-.04.68,0,.13-.11.23-.24.23Z"/>
        <path d="M163.89,113.45c-.13,0-.24-.11-.24-.24v-10.98l-4.7-.58v10.72c0,.13-.11.24-.24.24s-.24-.11-.24-.24v-10.99c0-.07.03-.13.08-.18s.12-.07.19-.06l5.18.64c.12.01.21.12.21.24v11.2c0,.13-.11.24-.24.24Z"/>
        <path d="M223.02,158.24c-.13,0-.24-.11-.24-.24v-2.94c0-3.76,0-7.51,0-11.27,0-.26-.03-.52-.07-.79-.02-.13-.03-.26-.05-.39-.01-.13.08-.25.22-.26.14-.01.25.08.26.22.01.12.03.25.04.37.04.28.07.56.07.85,0,3.76,0,7.51,0,11.27v2.94c0,.13-.11.24-.24.24Z"/>
        <path d="M155.46,39.15s-.02,0-.02,0c-.51-.05-1.02-.1-1.53-.16-1.11-.12-2.27-.24-3.4-.32-2.61-.18-5.28-.34-8.18-.48-2.08-.1-4.2-.19-6.25-.28-1.57-.07-3.14-.14-4.7-.21-.46-.02-.91-.07-1.34-.12-.19-.02-.39-.04-.57-.06-.11-.01-.2-.1-.21-.21-.13-.99-.03-1.62.31-1.99.27-.29.68-.41,1.24-.37,1.34.09,2.69.19,4.03.28,2.03.14,4.13.29,6.2.42.46.03.94-.05,1.33-.22,1.49-.65,3-1.34,4.46-2,1.09-.49,2.17-.98,3.26-1.47.42-.18.84-.27,1.19-.26.68.04,1.38.1,2.05.16.79.07,1.6.14,2.41.18,1.31.06,2.65.08,3.95.1.57,0,1.14.02,1.7.03.13,0,.24.11.24.25,0,.13-.12.23-.25.24-.57-.01-1.13-.02-1.7-.03-1.3-.02-2.64-.04-3.96-.1-.81-.04-1.63-.11-2.43-.18-.67-.06-1.36-.12-2.03-.16-.28-.02-.62.06-.97.21-1.09.48-2.17.98-3.26,1.47-1.46.66-2.97,1.35-4.46,2-.45.2-1.02.3-1.55.26-2.07-.13-4.17-.28-6.21-.42-1.34-.1-2.69-.19-4.03-.28-.41-.03-.69.04-.86.22-.22.23-.29.7-.21,1.41.13.01.26.03.39.04.43.05.87.1,1.31.12,1.57.07,3.14.14,4.7.21,2.05.09,4.17.18,6.26.28,2.9.14,5.58.3,8.19.49,1.14.08,2.3.2,3.42.32.51.05,1.02.11,1.53.16.13.01.23.13.22.26-.01.12-.12.22-.24.22Z"/>
        <path d="M131.02,107.07c-.08,0-.16-.04-.21-.12-.07-.11-.03-.26.08-.33,1.45-.87,2.9-1.73,4.35-2.6,3.66-2.19,7.45-4.46,11.19-6.66.35-.21.71-.45,1.05-.68,1.39-.93,2.82-1.9,4.79-1.4.13.03.21.16.18.29s-.16.21-.29.18c-1.76-.44-3.04.42-4.4,1.34-.35.23-.71.48-1.07.69-3.74,2.21-7.52,4.47-11.18,6.66-1.45.87-2.9,1.74-4.35,2.6-.04.02-.08.03-.12.03Z"/>
        <path d="M77.12,34.37c-.16,0-.31-.02-.47-.05-.61-.14-1.13-.52-1.47-1.08-.4-.67-.5-1.53-.28-2.34.48-1.75,1.03-2.1,3.26-2.1.04,0,.09.01.12.03.89.53,1.41,1.36,1.54,2.47,0,.03,0,.06,0,.09,0,.04.01.08,0,.12-.01.06-.03.11-.05.17-.03.1-.06.18-.06.26,0,.66-.4,1.37-1.02,1.87-.48.38-1.03.58-1.58.58ZM78.11,29.27c-1.98,0-2.31.23-2.73,1.75-.19.69-.11,1.41.23,1.97.27.45.68.75,1.16.86.54.12,1.14-.04,1.64-.44.51-.4.83-.99.84-1.49,0-.15.04-.28.08-.4.01-.05.03-.09.04-.14,0,0,0,0,0,0,0-.01,0-.02,0-.03-.11-.94-.52-1.61-1.25-2.07Z"/>
        <path d="M180.14,115.89c-.33,0-.66-.03-1.02-.11-1.2-.27-2.45-.39-3.67-.52-.72-.07-1.47-.15-2.21-.25-1.01-.14-2.02-.32-3.01-.48-.95-.16-1.93-.33-2.9-.47-1.02-.15-2.06-.27-3.06-.39-.89-.11-1.81-.22-2.71-.34-1.39-.19-2.8-.41-4.17-.62-.74-.11-1.48-.23-2.22-.34-.64-.1-1.28-.19-1.91-.28l-.86-.12c-.12-.02-.21-.12-.21-.24v-25.37c0-.13.11-.24.24-.24s.24.11.24.24v25.17l.65.09c.64.09,1.28.18,1.92.28.74.11,1.48.22,2.22.34,1.36.21,2.77.43,4.16.62.9.13,1.82.24,2.71.34,1.01.12,2.05.25,3.07.39.97.14,1.96.31,2.91.47.98.17,1.99.34,2.99.48.72.1,1.47.18,2.19.25,1.23.12,2.5.25,3.72.53,1.56.35,2.8-.25,4.11-.89l.2-.1c.12-.06.26,0,.32.11.06.12,0,.26-.11.32l-.2.1c-1.05.51-2.14,1.04-3.41,1.04Z"/>
        <path d="M171.42,51.53c-.51,0-1.03-.06-1.53-.18-1.14-.28-2.75-1.01-3.9-2.93-1.37-2.28-1.41-4.65-.11-6.85,1.39-2.34,3.89-3.47,6.38-2.87,2.47.59,4.19,2.27,4.98,4.84.69,2.25.25,4.25-1.3,5.94,0,.08-.02.16-.09.21-.12.1-.25.2-.37.31-.27.23-.55.47-.87.66-.92.57-2.05.87-3.19.87ZM170.93,39.02c-1.85,0-3.59,1.02-4.64,2.79-1.22,2.06-1.19,4.2.11,6.36,1.07,1.78,2.55,2.46,3.6,2.71,1.5.36,3.13.13,4.35-.63.28-.17.54-.39.8-.62.1-.08.19-.16.29-.24,0-.06.02-.12.07-.17,1.48-1.57,1.9-3.44,1.26-5.54-.74-2.4-2.34-3.96-4.63-4.51-.4-.1-.81-.14-1.21-.14Z"/>
        <path d="M127.68,45.52s-.08-.01-.12-.03l-.37-.21c-.07-.04-.11-.11-.12-.18-.02-.13-.03-.25-.05-.38-.04-.28-.09-.58-.09-.88v-.71c-.01-2.69-.03-5.47,0-8.2.01-.86-.03-1.62-.66-2.23-.1-.09-.1-.24,0-.34.09-.1.24-.1.34,0,.77.74.82,1.68.81,2.58-.03,2.73-.02,5.51,0,8.2v.71c0,.26.04.53.09.81.01.09.03.18.04.27l.13.07,2.85-1.95c.11-.08.26-.05.33.06.08.11.05.26-.06.33l-2.98,2.04s-.09.04-.14.04Z"/>
        <path d="M55.47,36.05c-.11,0-.23,0-.35-.02-1.07-.13-1.62-.82-1.65-2.05,0-.17,0-.33,0-.5v-2.64c0-.13.11-.24.24-.24s.24.11.24.24v2.64c0,.16,0,.32,0,.49.02.99.4,1.48,1.23,1.58.49.06.91-.03,1.2-.27.31-.25.5-.66.55-1.21.08-.84.06-1.72.04-2.56,0-.38-.02-.77-.02-1.15,0-.13.11-.24.24-.24s.24.11.24.24c0,.38,0,.76.02,1.14.02.86.04,1.75-.04,2.62-.06.68-.31,1.21-.73,1.54-.32.26-.74.4-1.22.4Z"/>
        <path d="M212.66,137.89c-.06,0-.13-.02-.17-.07-.09-.1-.09-.25,0-.34l4.74-4.62v-5.32c0-.72,0-1.43,0-2.15,0-1.62,0-3.3,0-4.95-.01-1.33-.04-2.69-.08-4-.01-.59-.03-1.18-.04-1.77,0-.13.1-.24.24-.25.13,0,.24.1.25.24.01.59.03,1.18.04,1.77.03,1.31.06,2.67.08,4.01.01,1.65.01,3.33,0,4.96,0,.72,0,1.43,0,2.15v5.42c0,.07-.03.13-.07.17l-4.82,4.69s-.11.07-.17.07ZM217.48,132.96h0,0Z"/>
        <path d="M44.69,27.34c-.09,0-.19,0-.28-.02-.49-.07-.95-.27-1.4-.47-.19-.08-.39-.17-.58-.24-.12-.05-.19-.19-.14-.31.05-.12.19-.19.31-.14.2.08.41.16.6.25.44.19.85.37,1.28.43.86.13,1.27-.49,1.38-1.1.1-.55-.22-.95-1.03-1.29-.19-.08-.39-.12-.61-.17-.11-.02-.21-.04-.31-.07-.98-.25-1.4-.82-1.26-1.72.14-.87.79-1.4,1.69-1.37.42.01.81.2,1.18.37.16.08.31.15.46.21.12.05.19.19.14.31-.05.12-.19.19-.31.14-.17-.07-.34-.14-.5-.22-.35-.16-.67-.32-.99-.33-.31,0-1.06.07-1.2.96-.1.64.17.99.9,1.17.1.02.2.05.3.07.23.05.47.1.7.19,1.01.43,1.46,1.04,1.32,1.82-.16.94-.81,1.52-1.64,1.52Z"/>
        <path d="M131.62,43.6s-.04,0-.06,0c-.15-.04-.31-.09-.46-.14-.32-.1-.64-.2-.92-.2-.46,0-.81-.11-1.03-.35-.22-.23-.31-.56-.29-1.01.07-1.26.75-1.53,1.32-1.54.87-.01,1.74.03,2.59.07.26.01.53.03.79.04.11,0,.22.04.3.07.07.02.13.04.18.04.84.03,1.68.06,2.52.09,1.3.05,2.65.09,3.98.16,2.9.14,5.84.3,8.69.45l.46.03c3.04.17,5.79.32,8.43.48.69.04,1.4.1,2.08.16.31.03.63.05.94.08.13.01.23.13.22.26-.01.13-.13.23-.26.22-.31-.03-.63-.05-.94-.08-.68-.06-1.38-.12-2.06-.16-2.64-.16-5.39-.32-8.43-.48l-.46-.03c-2.85-.16-5.79-.32-8.69-.45-1.32-.06-2.67-.11-3.97-.16-.84-.03-1.68-.06-2.53-.09-.11,0-.22-.04-.31-.07-.07-.02-.13-.04-.18-.04-.26-.01-.53-.02-.79-.04-.84-.04-1.71-.08-2.56-.07-.36,0-.79.13-.84,1.08-.02.31.03.53.16.65.13.13.36.19.68.2h0c.37,0,.72.11,1.06.22.14.05.29.09.43.13.13.03.21.16.18.29-.03.11-.13.18-.23.18Z"/>
        <path d="M92.72,70.34s-.08,0-.11-.03c-1.13-.6-1.8-2.63-1.32-4.02.34-.99,1.12-1.41,2.31-1.24.05,0,.09.03.13.06.79.73.73,1.63.69,2.43-.02.3-.04.59-.01.86.08,1.05-.45,1.74-1.51,1.94-.04,0-.07,0-.1,0-.02,0-.04,0-.06,0ZM93.12,65.49c-.71,0-1.16.31-1.38.95-.4,1.16.14,2.9,1.05,3.42,0,0,0,0,0,0,.82-.15,1.19-.62,1.12-1.43-.02-.31,0-.63.01-.93.05-.73.09-1.43-.48-1.99-.12-.01-.23-.02-.33-.02Z"/>
        <path d="M227.83,136.81s-.02,0-.04,0l-10.12-1.49c-.11-.02-.19-.1-.2-.2l-.23-1.64c-.02-.13.07-.25.2-.27.14-.02.25.07.27.2l.21,1.46,9.95,1.47c.13.02.22.14.2.27-.02.12-.12.21-.24.21Z"/>
        <path d="M175.45,32.29s0,0-.01,0l-11.56-.48c-.13,0-.24-.12-.23-.25s.11-.24.25-.23l11.56.48c.13,0,.24.12.23.25,0,.13-.11.23-.24.23Z"/>
        <path d="M174.5,31.03c-.5,0-1-.03-1.49-.12-.14-.03-.3-.04-.47-.06-.75-.08-1.78-.18-2.1-1.49-.02-.1.02-.2.1-.26l.93-.63c.11-.08.26-.05.33.06.07.11.05.26-.06.33l-.78.53c.27.83.94.9,1.64.97.17.02.35.04.51.07.99.18,2.05.11,3.08.03h.1c.75-.06,1.49-.17,2.27-.3.29-.04.58-.09.88-.13v-1.01c0-.13.11-.24.24-.24s.24.11.24.24v1.22c0,.12-.09.22-.21.24-.37.05-.72.11-1.08.16-.8.12-1.55.24-2.31.29h-.1c-.56.05-1.14.09-1.71.09Z"/>
        <path d="M170.15,114.29s-.02,0-.02,0c-.13-.01-.23-.13-.22-.26.01-.13.03-.26.05-.39.03-.27.07-.53.07-.79,0-2.49,0-4.98,0-7.48v-2.28c0-.13.11-.24.24-.24s.24.11.24.24v2.28c0,2.49,0,4.99,0,7.48,0,.29-.04.58-.07.85-.02.12-.03.25-.04.37-.01.12-.12.22-.24.22Z"/>
        <path d="M31.84,37.81c-.09,0-.19,0-.28-.01-.62-.07-1.15-.35-1.51-.8-.89-1.1-1.01-2.95.5-4.19,1.16-.96,2.26-.87,3.35.27.09.1.09.25,0,.34-.1.09-.25.09-.34,0-.92-.96-1.72-1.03-2.69-.23-1.27,1.05-1.17,2.59-.43,3.52.28.35.7.57,1.19.62.6.06,1.23-.13,1.72-.52.14-.11.29-.2.44-.28.06-.03.13-.07.19-.11.11-.07.26-.03.33.08.07.11.03.26-.08.33-.07.04-.13.08-.2.11-.14.07-.26.14-.37.23-.51.41-1.15.64-1.79.64Z"/>
        <path d="M49.27,36.51c-.06,0-.11,0-.16,0-.61-.05-1.15-.37-1.6-.95-.46-.59-.65-1.42-.51-2.21.12-.68.54-1.66,1.86-2.49.06-.03.12-.05.19-.03l2.44.61c.13.03.21.16.17.29-.03.13-.16.21-.29.17l-2.34-.59c-1.1.72-1.46,1.54-1.56,2.11-.12.66.04,1.34.42,1.83.36.47.79.72,1.26.76.6.05,1.29-.26,1.99-.91.1-.09.25-.08.34.01.09.1.08.25-.01.34-.74.68-1.5,1.04-2.19,1.04Z"/>
        <path d="M151.37,36.67s-.01,0-.02,0l-8.67-.65c-.13,0-.23-.13-.22-.26,0-.13.12-.23.26-.22l8.41.63v-4c0-.13.11-.24.24-.24s.24.11.24.24v4.26c0,.07-.03.13-.08.18-.04.04-.1.06-.16.06Z"/>
        <path d="M211.11,132.77s-.04,0-.06,0l-4.35-1.14c-.13-.03-.21-.17-.17-.29.03-.13.17-.21.29-.17l4.21,1.1,6.03-6.45c.09-.1.24-.1.34-.01.1.09.1.24.01.34l-6.13,6.55s-.11.08-.18.08Z"/>
        <path d="M124.87,44.57h0c-.13,0-.24-.11-.24-.24.01-.8.02-1.61.03-2.41.03-1.93.05-3.93.09-5.9v-.08c.03-1.14.05-2.22-.68-3.13-.08-.1-.07-.26.04-.34.1-.08.26-.07.34.04.83,1.05.81,2.27.78,3.44v.08c-.04,1.96-.07,3.96-.1,5.9-.01.8-.02,1.61-.03,2.41,0,.13-.11.24-.24.24Z"/>
        <path d="M180.75,58.78c-.11,0-.21-.08-.23-.19-.03-.13.05-.26.18-.29.12-.03.24-.05.37-.06.24-.04.47-.07.65-.17.9-.46,1.8-.95,2.68-1.42.82-.44,1.67-.9,2.51-1.33,1.36-.71,1.97-1.75,1.93-3.28-.03-1.21.01-2.43.05-3.62.02-.52.04-1.05.05-1.57,0-.13.12-.24.25-.24.13,0,.24.11.24.25-.01.53-.03,1.05-.05,1.58-.04,1.18-.08,2.4-.05,3.59.04,1.71-.67,2.93-2.19,3.72-.84.43-1.68.89-2.5,1.33-.88.47-1.79.96-2.69,1.42-.25.13-.53.17-.8.22-.11.02-.23.03-.33.06-.02,0-.04,0-.05,0Z"/>
        <path d="M51.19,26.9c-.63,0-1.22-.23-1.75-.69-1.21-1.06-1.09-3.37-.15-4.46,1.22-1.4,2.47-1.56,4.06-.51.11.07.14.22.07.33-.07.11-.22.14-.33.07-1.38-.91-2.38-.79-3.43.43-.8.91-.89,2.91.1,3.78,1,.87,2.26.74,3.55-.37.1-.09.25-.08.34.03.09.1.08.25-.03.34-.82.7-1.65,1.06-2.43,1.06Z"/>
        <path d="M197.92,97.8s-.02,0-.03,0l-6.57-.73c-.13-.01-.23-.13-.21-.27.01-.13.13-.23.27-.21l6.48.72c.15-.11.3-.22.45-.33.38-.28.74-.54,1.09-.82.4-.32.79-.66,1.17-1,.17-.15.34-.29.51-.44.1-.09.25-.07.34.03.09.1.08.25-.03.34-.17.15-.34.29-.51.44-.38.33-.78.68-1.19,1.01-.36.29-.72.55-1.1.84-.17.13-.34.25-.52.38-.04.03-.09.05-.14.05Z"/>
        <path d="M245.17,113.21s-.02,0-.03,0l-8.12-.95c-.11-.01-.2-.1-.21-.21l-.19-1.46c-.02-.13.08-.25.21-.27.13-.02.25.08.27.21l.16,1.27,7.94.93c.13.02.23.14.21.27-.01.12-.12.21-.24.21Z"/>
        <path d="M23.24,47.7c-.13,0-.23-.1-.24-.23l-.16-2.95c0-.07.02-.13.07-.18s.11-.08.17-.08h1.94c.09,0,.18.05.22.14.54,1.16.64,1.95.29,2.5-.33.52-1.03.78-2.16.79-.02,0-.04,0-.06,0-.02,0-.03,0-.05,0,0,0,0,0-.01,0ZM23.33,44.75l.14,2.47c.89-.02,1.43-.21,1.65-.56.24-.38.15-1-.25-1.91h-1.53Z"/>
        <path d="M63.58,25.92c-.06,0-.12-.02-.16-.06-.05-.05-.08-.11-.08-.18,0-.2,0-.4,0-.58,0-.36,0-.68,0-1.01-.03-1.05-.06-2.1-.09-3.15l-.03-1.18c0-.13.1-.24.23-.25.14,0,.24.1.25.23l.03,1.18c.03,1.05.06,2.1.09,3.15,0,.33,0,.65,0,1.02,0,.1,0,.2,0,.31l2.75-.24c.13-.01.25.09.26.22.01.13-.09.25-.22.26l-3.01.26s-.01,0-.02,0Z"/>
        <path d="M120.3,41.71c-.17,0-.34-.03-.5-.1-.52-.2-.96-.72-1.29-1.53-.02-.05-.02-.1-.01-.15-.01-.04-.01-.09,0-.14.02-.07.05-.15.07-.22.05-.17.11-.35.18-.52.34-.78,1.03-1.14,1.83-.96.79.17,1.31.74,1.39,1.51.1.93-.23,1.58-.97,1.93-.24.11-.48.17-.7.17ZM118.97,39.93c.27.66.62,1.08,1,1.23.25.1.53.08.83-.06.56-.27.78-.71.7-1.44-.06-.57-.43-.96-1.02-1.09-.58-.13-1.03.12-1.28.68-.06.15-.11.3-.16.47-.02.07-.04.14-.07.22Z"/>
        <path d="M22.52,75.28s-.09-.01-.13-.04c-.11-.07-.15-.22-.08-.33.1-.16.19-.32.29-.48.22-.36.44-.74.69-1.09.19-.27.41-.53.62-.77.29-.35.57-.67.79-1.03.37-.6.64-1.42-.16-1.94-.65-.42-1.22-.29-1.85.43-.11.12-.24.21-.37.3-.05.03-.1.07-.15.1-.11.08-.26.06-.34-.05-.08-.11-.06-.26.05-.34.05-.04.11-.08.17-.12.11-.07.21-.14.27-.21.79-.9,1.63-1.07,2.48-.51.87.57.98,1.51.3,2.6-.24.39-.54.75-.83,1.09-.2.24-.41.49-.6.74-.24.33-.46.7-.67,1.06-.1.16-.19.33-.29.49-.05.07-.12.11-.21.11Z"/>
        <path d="M189.3,34.09c-.12,0-.23-.1-.24-.22-.01-.15-.03-.3-.04-.45-.03-.33-.07-.67-.07-1.01-.01-2.91-.9-2.97-3.03-3.11-1.36-.09-2.76-.1-4.11-.12-.74,0-1.51-.01-2.26-.03-.19,0-.36-.09-.51-.17-.06-.03-.11-.06-.17-.08-.12-.05-.18-.19-.13-.31.05-.12.19-.18.31-.13.07.03.14.06.21.1.12.06.23.11.31.12.75.02,1.51.03,2.25.03,1.36.01,2.76.03,4.14.12,2.34.15,3.47.37,3.48,3.59,0,.32.03.63.07.97.02.15.03.31.04.46.01.13-.09.25-.22.26,0,0-.01,0-.02,0Z"/>
        <path d="M33.43,62.82c-.05,0-.1-.02-.15-.05-.06-.04-.09-.11-.1-.19l-.08-2.72s0-.05,0-.07c-.03-.11.03-.23.14-.28.79-.33,1.3-.4,1.71-.23.34.14.58.45.78.97.19.5.19.93,0,1.29-.29.55-1,.95-2.26,1.26-.02,0-.04,0-.06,0ZM33.6,59.9l.07,2.37c.92-.26,1.46-.57,1.65-.94.13-.24.12-.53-.02-.9-.15-.38-.31-.61-.52-.69-.25-.11-.63-.05-1.18.17Z"/>
        <path d="M30.7,63c-.08,0-.15,0-.23-.02-.41-.07-.79-.31-1.05-.69-.33-.48-.43-.99-.28-1.48.18-.59.7-1.09,1.47-1.41.05-.02.1-.02.15-.01.06-.02.13,0,.19.03.11.07.22.14.33.21.27.16.56.33.78.57.23.25.25.65.22.94-.05.55-.31,1.26-.72,1.57-.26.19-.56.3-.87.3ZM30.76,59.86c-.61.26-1.02.64-1.15,1.08-.1.34-.03.71.22,1.07.19.27.45.45.73.49.26.04.51-.02.73-.19.25-.18.49-.73.53-1.23.03-.32-.03-.5-.1-.57-.18-.19-.42-.33-.67-.48-.1-.06-.2-.12-.29-.18Z"/>
        <path d="M155.46,42.04s-.01,0-.02,0c-.13,0-.23-.12-.22-.26l.2-2.98c0-.13.12-.24.25-.22l5.46.33c.13,0,.23.12.23.26,0,.13-.12.24-.26.23l-5.22-.32-.19,2.74c0,.13-.11.22-.24.22Z"/>
        <path d="M150.76,31.92c-.13,0-.24-.11-.24-.24l-.12-8.07c0-.13.1-.24.24-.24.13,0,.24.1.24.24l.12,8.07c0,.13-.1.24-.24.24h0Z"/>
        <path d="M51.39,45.53c-.26,0-.47-.06-.65-.18-.45-.3-.64-.93-.64-2.11,0-.06.02-.12.06-.16,1.21-1.36,1.41-1.5,2.61-.64.11.08.13.23.05.34-.08.11-.23.13-.34.05-.88-.63-.89-.64-1.91.5,0,.92.14,1.43.43,1.62.27.18.77.12,1.55-.2.09-.25.1-.44.03-.54-.08-.11-.32-.15-.66-.12-.13.01-.25-.09-.26-.22-.01-.13.09-.25.22-.26.54-.05.89.06,1.08.32.19.25.19.61,0,1.1-.02.06-.07.11-.13.13-.61.26-1.08.38-1.45.38Z"/>
        <path d="M204.83,92.5c-.07,0-.14-.03-.19-.09-.08-.1-.07-.25.03-.34.27-.22.55-.45.82-.68.6-.5,1.21-1.01,1.84-1.49,1.27-.95,2.57-1.9,3.83-2.82.53-.39,1.06-.77,1.59-1.16.11-.08.26-.06.34.05.08.11.06.26-.05.34-.53.39-1.06.77-1.59,1.16-1.26.92-2.56,1.87-3.82,2.82-.62.47-1.23.98-1.82,1.47-.27.23-.55.46-.82.68-.04.04-.1.05-.15.05Z"/>
        <path d="M155.58,36.89s-.02,0-.02,0l-3.97-.39c-.13-.01-.23-.13-.22-.26.01-.13.13-.23.26-.22l3.71.36v-3.97c0-.13.11-.24.24-.24s.24.11.24.24v4.24c0,.07-.03.13-.08.18-.04.04-.1.06-.16.06Z"/>
        <path d="M42.63,36.89c-.06,0-.12-.02-.17-.07-.05-.05-.08-.11-.08-.17v-5.09c0-.13.11-.24.24-.24s.24.11.24.24v4.84l2.52-.14c.13,0,.25.09.25.23s-.09.25-.23.25l-2.77.15s0,0-.01,0Z"/>
        <path d="M175.28,30.12c-1.19,0-2.33-.18-3.5-.55-.1-.03-.17-.13-.17-.24l.22-6.93c0-.13.11-.24.25-.23.13,0,.24.12.23.25l-.22,6.74c2.02.61,3.98.63,6.3.08v-7.26l-1.68-.42c-.13-.03-.21-.16-.17-.29.03-.13.16-.21.29-.17l1.87.47c.11.03.18.12.18.23v7.64c0,.11-.08.21-.18.23-1.22.3-2.34.45-3.42.45Z"/>
        <path d="M59.97,35.58c-.06,0-.12-.02-.17-.07-.05-.05-.08-.11-.08-.18v-4.98c0-.13.11-.24.24-.24s.24.11.24.24v4.73l2.51-.15c.13,0,.25.09.25.23,0,.13-.09.25-.23.25l-2.77.17s0,0-.01,0Z"/>
        <path d="M55.99,26.51s-.06,0-.09-.02c-.12-.05-.19-.19-.14-.31l2.26-5.84c.03-.08.11-.14.2-.15.09-.01.18.03.23.1.46.65.74,1.3,1.01,1.93.08.19.17.39.25.57.34.74.71,1.47,1.08,2.19.16.31.32.63.48.94.06.12.01.26-.11.32-.12.06-.26.01-.32-.11-.16-.31-.32-.63-.48-.94-.37-.72-.74-1.46-1.09-2.2-.09-.19-.17-.39-.26-.59-.21-.48-.42-.97-.71-1.45l-2.09,5.4c-.04.1-.13.15-.22.15Z"/>
        <path d="M99.59,57.81c-.13,0-.24-.11-.24-.24,0-.5,0-1,0-1.5,0-1.17,0-2.37,0-3.55,0-.91-.23-1.12-1.22-1.21-.13-.01-.23-.13-.22-.26s.13-.23.26-.22c1.23.1,1.65.53,1.66,1.68.01,1.19,0,2.39,0,3.56,0,.5,0,1,0,1.5,0,.13-.11.24-.24.24Z"/>
        <path d="M125.72,32.77s-.01,0-.02,0c-.54-.04-1.07-.07-1.61-.1-1.25-.08-2.54-.16-3.82-.26-.75-.06-1.52-.15-2.25-.24-.34-.04-.67-.08-1.01-.12-.13-.01-.23-.13-.21-.27.01-.13.13-.23.27-.21.34.04.67.08,1.01.12.73.09,1.49.18,2.23.24,1.27.1,2.56.18,3.81.26.54.03,1.07.07,1.61.1.13,0,.23.12.22.26,0,.13-.11.22-.24.22Z"/>
        <path d="M83.93,31.44c-.06,0-.12-.02-.16-.06-.1-.09-.11-.24-.02-.34l1.05-1.17c-.77-1.24-1.03-1.31-2.7-.74l.26,1.92c.02.13-.07.25-.21.27-.13.02-.25-.07-.27-.21l-.28-2.11c-.02-.11.05-.22.16-.26,2.11-.73,2.54-.61,3.55,1.03.06.09.04.21-.03.29l-1.17,1.3c-.05.05-.11.08-.18.08Z"/>
        <path d="M84.77,94.32c-.26,0-.55-.09-.86-.31-.84-.6-1.12-2.1-.55-2.97.62-.94,1.54-1.09,2.84-.44.12.06.17.2.11.32-.06.12-.2.17-.32.11-1.36-.68-1.9-.21-2.22.28-.43.65-.21,1.86.42,2.32.61.44,1.05.17,1.6-.44.09-.1.24-.11.34-.02.1.09.11.24.02.34-.27.3-.74.82-1.38.82Z"/>
        <path d="M45.88,147.65c-.05,0-.1-.02-.14-.05-.11-.08-.13-.23-.05-.34.15-.2.29-.39.44-.58.33-.43.68-.88.99-1.34.27-.39.52-.8.81-1.28.11-.18.23-.37.35-.58-.14-.09-.28-.17-.4-.26-.36-.23-.66-.44-.96-.47-.24-.03-.47.03-.64.16-.17.14-.27.37-.29.65,0,.13-.13.23-.25.23-.13,0-.23-.12-.23-.25.02-.42.19-.76.46-.99.27-.22.63-.32,1.01-.27.41.05.76.28,1.16.55.18.12.38.25.59.37.06.03.1.09.12.15.02.06,0,.13-.03.19-.18.28-.33.54-.48.78-.3.49-.55.9-.83,1.3-.32.46-.67.92-1,1.36-.15.19-.29.39-.44.58-.05.06-.12.1-.19.1Z"/>
        <path d="M46.9,131.43c-.51,0-.97-.28-1.37-.53-.08-.05-.17-.1-.25-.15-.12-.07-.15-.21-.09-.33.07-.11.21-.15.33-.09.09.05.17.1.26.16.74.45,1.22.7,1.87.12.37-.33.55-.68.54-1.03-.02-.39-.29-.8-.79-1.18l-1.54.11c-.07,0-.14-.02-.19-.07s-.07-.12-.06-.2l.25-2.03c.01-.11.11-.2.22-.21l2.19-.15c.14-.01.25.09.26.22,0,.13-.09.25-.22.26l-1.99.13-.19,1.54,1.33-.09c.06,0,.11.01.16.05.66.49,1.03,1.04,1.05,1.6.02.5-.22.98-.7,1.41-.38.34-.74.46-1.07.46Z"/>
        <path d="M46.88,115.03c-.11,0-.21,0-.29,0-1.2-.05-1.27-.96-1.33-1.76,0-.05,0-.12.04-.17l.02-.02c.21-.31.44-.64.78-.89l-.04-.05c-.38-.49-.86-1.1-.42-1.92.02-.03.04-.06.08-.09.74-.51,1.2-.74,1.64-.64.45.11.77.55,1.24,1.37.05.1.04.22-.04.29-.1.1-.21.23-.33.37-.12.15-.24.29-.37.42.91.51.97,1.45.73,2.17-.28.81-1.14.91-1.71.91ZM45.75,113.3c.06.84.14,1.21.86,1.24.93.04,1.37-.13,1.53-.58.09-.27.32-1.17-.56-1.62-.05-.02-.08-.06-.1-.1-.08.04-.17.06-.26.07-.79.05-1.1.46-1.47,1ZM46.05,110.49c-.23.49,0,.83.4,1.35l.09.11c.19-.07.4-.12.65-.13.19-.01.46-.34.67-.6.08-.09.15-.19.23-.28-.33-.58-.58-.93-.84-.99-.25-.06-.64.15-1.21.53Z"/>
        <path d="M71.93,43.86c-.44,0-.83-.21-1.2-.71-.75-1.02.04-1.97,1-2.85.07-.06.17-.08.25-.05l1.2.48c.12.05.18.19.13.31-.05.12-.19.18-.31.13l-1.06-.42c-1.17,1.09-1.19,1.62-.83,2.1.46.63.85.73,2.1.05.12-.06.26-.02.33.1.06.12.02.26-.1.33-.59.32-1.09.52-1.52.52Z"/>
        <path d="M84.6,42.9c-.29,0-.59-.1-.91-.31-.37-.24-.62-.62-.71-1.06-.09-.46.01-.94.27-1.32.74-1.05,1.34-1.16,2.49-.43.11.07.15.22.07.33-.07.11-.22.15-.33.07-.94-.6-1.25-.55-1.84.3-.19.27-.26.62-.2.95.06.31.24.58.5.75.31.2.58.27.82.21.24-.06.46-.26.64-.59.06-.12.21-.16.33-.1.12.06.16.21.1.33-.25.45-.56.73-.94.83-.1.02-.19.04-.29.04Z"/>
        <path d="M175.23,23.06c-1.16,0-2.22-.18-3.24-.55-.08-.03-.14-.09-.15-.18l-.07-.33c-.03-.12.04-.24.16-.28l1.88-.63c.13-.04.26.03.3.15.04.13-.03.26-.15.3l-1.66.56c1.78.6,3.72.62,6.11.06.13-.03.26.05.29.18.03.13-.05.26-.18.29-1.19.28-2.27.42-3.28.42Z"/>
        <path d="M81.22,94.57c-.28,0-.63-.1-1.11-.28-.12-.05-.19-.19-.14-.31.05-.12.19-.19.31-.14,1.08.42,1.21.39,1.61-.56-.06-.3-.33-.4-.78-.55-.57-.18-1.34-.43-1.12-1.54.01-.07.06-.13.12-.16.09-.05.19-.12.28-.18.32-.22.67-.46,1.08-.37.29.07.53.3.75.71.06.12.02.26-.1.33-.12.06-.26.02-.33-.1-.15-.28-.29-.43-.44-.47-.19-.05-.45.13-.69.29-.07.05-.15.1-.22.15-.08.57.23.7.81.89.47.15,1.06.34,1.12,1.02,0,.04,0,.08-.02.11-.34.82-.62,1.17-1.14,1.17Z"/>
        <path d="M81.76,33.97s-.03,0-.04,0c-.13-.02-.22-.15-.19-.28l.45-2.47c.02-.11.12-.2.24-.2h1.27c.07,0,.14.03.19.09l1.66,2.11c.08.1.06.26-.04.34-.1.08-.26.06-.34-.04l-1.58-2.02h-.95l-.41,2.27c-.02.12-.12.2-.24.2Z"/>
        <path d="M171.33,48.45c-.13,0-.25-.01-.38-.03-1.44-.24-2.72-1.47-2.85-2.74-.22-2.17.67-3.43,2.73-3.83.54-.11,1.15.17,1.68.42l.14.06c.31.14.57.37.82.59.1.09.21.18.32.27.08.06.11.16.09.25l.03.09c.36,1.01.73,2.06.08,3.23-.58,1.05-1.63,1.71-2.66,1.71ZM171.09,42.3c-.05,0-.11,0-.16.01-1.79.36-2.54,1.41-2.34,3.31.11,1.05,1.23,2.11,2.45,2.32.92.15,1.99-.45,2.54-1.43.54-.98.22-1.88-.12-2.83l-.04-.11s-.01-.06-.01-.09c-.08-.07-.16-.14-.24-.21-.24-.21-.46-.4-.71-.51l-.14-.06c-.41-.19-.86-.4-1.22-.4Z"/>
        <path d="M63.94,73.23s-.05,0-.08-.01c-.13-.04-.19-.18-.15-.3.06-.19.12-.38.18-.56.13-.41.27-.84.43-1.25.36-.95.74-1.9,1.11-2.83.15-.38.3-.77.46-1.15.05-.12.19-.18.31-.14.12.05.18.19.14.31-.15.38-.3.77-.46,1.15-.37.92-.74,1.88-1.1,2.82-.15.4-.29.82-.42,1.23-.06.19-.12.38-.18.57-.03.1-.13.16-.23.16Z"/>
        <path d="M129.58,38.4c-.06,0-.11-.02-.16-.06-1.21-1.02-1.51-2.32-.77-3.31.26-.34.64-.55,1.05-.58.41-.03.82.13,1.12.44.09.09.09.25,0,.34-.09.09-.25.09-.34,0-.2-.21-.47-.31-.74-.29-.28.02-.52.16-.7.39-.54.72-.35,1.64.47,2.45l.21-.41c.06-.12.2-.17.32-.11.12.06.17.2.11.32l-.35.7c-.03.07-.09.11-.17.13-.02,0-.03,0-.05,0Z"/>
        <path d="M69.18,25.48c-.06,0-.12-.02-.16-.06-.05-.05-.08-.11-.08-.18v-5.56c0-.12.09-.23.22-.24l2.95-.28c.13-.01.25.08.26.22.01.13-.08.25-.22.26l-2.73.26v5.08l2.93-.28c.13-.01.25.08.26.22.01.13-.08.25-.22.26l-3.19.3s-.02,0-.02,0Z"/>
        <path d="M164.25,96.23c-.13,0-.24-.11-.24-.24v-5.66c0-.13.11-.24.24-.24s.24.11.24.24v5.66c0,.13-.11.24-.24.24Z"/>
        <path d="M129.45,44.21c-.06,0-.12-.02-.17-.07-1.43-1.37-1.69-2.81-.73-3.94.39-.46.78-.68,1.17-.66.37.02.7.24,1,.67.08.11.05.26-.06.34s-.26.05-.34-.06c-.21-.3-.42-.46-.63-.47-.29-.01-.59.26-.79.49-1.06,1.24-.02,2.59.7,3.28.1.09.1.24,0,.34-.05.05-.11.07-.17.07Z"/>
        <path d="M29.02,47.46c-.13,0-.24-.11-.24-.24v-3.11c0-.12.09-.22.21-.24,1.54-.21,1.65-.16,2.31,1.1.03.06.04.14,0,.2-.03.07-.08.12-.15.14l-1.83.58s-.05.01-.07.01v1.32c0,.13-.11.24-.24.24ZM29.26,44.31v1.09l1.48-.47c-.19-.36-.32-.56-.47-.64-.17-.08-.48-.05-1,.02Z"/>
        <path d="M161.12,37.22s-.01,0-.02,0l-5.42-.48c-.13-.01-.23-.13-.22-.26.01-.13.13-.23.26-.22l5.42.48c.13.01.23.13.22.26-.01.13-.12.22-.24.22Z"/>
        <path d="M91.04,93.6c-.06,0-.12-.02-.16-.06-.05-.05-.08-.11-.08-.18v-3.52c0-.13.11-.24.24-.24s.24.11.24.24v3.26l1.79-.13c.13,0,.25.09.26.22,0,.13-.09.25-.22.26l-2.05.15s-.01,0-.02,0Z"/>
        <path d="M69.72,72.02c-.13,0-.24-.11-.24-.24v-.79l-2.13.12c-.09,0-.17-.04-.22-.11-.05-.07-.05-.17,0-.24.15-.28.29-.55.42-.81.51-1,.95-1.87,1.68-2.58.07-.07.17-.09.26-.05l.33.14c.09.04.15.13.15.22v2.8l.47-.03c.13,0,.25.09.25.23,0,.13-.09.25-.23.25l-.49.03v.82c0,.13-.11.24-.24.24ZM69.45,67.83c-.61.64-1.01,1.43-1.47,2.34-.07.14-.15.29-.22.44l1.73-.1v-2.67l-.04-.02Z"/>
        <path d="M185.69,36.5s0,0,0,0c-.07,0-.13-.03-.18-.08-.92-1.07-.92-1.5,0-2.71.08-.11.23-.13.34-.05.11.08.13.23.05.34-.71.94-.77,1.17-.19,1.89.62-.9.46-2.5-.46-4.46-.06-.12,0-.26.12-.32.12-.06.26,0,.32.12,1.08,2.32,1.15,4.21.2,5.21-.05.05-.11.07-.17.07Z"/>
        <path d="M69.78,129.28c-.3,0-.65-.1-.96-.3-.45-.28-.72-.67-.74-1.07-.06-1.2.07-2.23.38-3.09.24-.66.66-1.06,1.18-1.15.52-.09,1.06.17,1.48.71.08.1.07.26-.04.34-.1.08-.26.07-.34-.04-.31-.39-.69-.59-1.03-.53-.34.06-.63.35-.8.84-.13.36-.23.76-.29,1.2,0,0,0,0,0,0,.1-.02.19-.04.26-.07.69-.36,1.15-.46,1.54-.33.34.12.6.4.84.93.16.34.14.8-.04,1.27-.21.56-.61,1.03-1.05,1.22-.12.05-.25.08-.4.08ZM68.57,126.69c-.03.38-.03.78,0,1.2.01.24.2.49.51.68.33.2.71.28.91.19.31-.14.62-.51.79-.95.13-.35.15-.69.05-.9-.18-.39-.36-.61-.56-.67-.24-.08-.6,0-1.16.3-.13.07-.27.09-.39.12-.05,0-.1.02-.14.03,0,0,0,0,0,0Z"/>
        <path d="M22.64,117.3s-.06,0-.09-.02c-.12-.05-.19-.19-.14-.31l1.81-4.73h-2.67c-.13,0-.24-.11-.24-.24s.11-.24.24-.24h3.02c.08,0,.15.04.2.1.04.07.05.15.03.22l-1.94,5.06c-.04.1-.13.15-.22.15Z"/>
        <path d="M71.53,34.93c-.13,0-.24-.11-.24-.24v-4.94c0-.13.11-.24.24-.24s.24.11.24.24v4.94c0,.13-.11.24-.24.24Z"/>
        <path d="M212.42,139.46c-.13,0-.24-.11-.24-.24s0-.28,0-.41c0-.3,0-.61,0-.92.11-2.17-.4-3.75-1.62-5-.09-.09-.09-.25,0-.34.1-.09.25-.09.34,0,1.32,1.35,1.88,3.05,1.76,5.36-.02.29-.01.6,0,.89,0,.14,0,.28,0,.42s-.11.24-.24.24Z"/>
        <path d="M32.39,47.22c-.13,0-.24-.11-.24-.24v-3.13c0-.13.11-.24.24-.24h1.65c.09,0,.17.05.21.13.56,1.11-.23,1.61-.65,1.88-.11.07-.26.04-.33-.08-.07-.11-.04-.26.08-.33.54-.34.76-.59.54-1.12h-1.25v2.89c0,.13-.11.24-.24.24Z"/>
        <path d="M94.17,93.36c-.06,0-.12-.02-.16-.06-.05-.05-.08-.11-.08-.18v-1.95c0-.13.11-.24.24-.24h1.57c.13,0,.24.11.24.24s-.11.24-.24.24h-1.32v1.45l1.55-.12c.13-.01.25.09.26.22.01.13-.09.25-.22.26l-1.81.14s-.01,0-.02,0Z"/>
        <path d="M84.41,71.3c-.13,0-.24-.1-.24-.24l-.12-5.3c0-.13.1-.24.24-.25,0,0,0,0,0,0,.13,0,.24.1.24.24l.12,5.3c0,.13-.1.24-.24.25,0,0,0,0,0,0Z"/>
        <path d="M133.18,40.71c-.08,0-.16-.04-.2-.11-.07-.11-.04-.26.07-.33.14-.09.27-.18.41-.27.3-.2.61-.4.93-.58.74-.41,1.49-.82,2.23-1.21.3-.16.6-.32.91-.49.12-.06.26-.02.33.1s.02.26-.1.33c-.3.16-.6.32-.91.49-.73.39-1.48.79-2.22,1.2-.31.17-.61.37-.9.56-.14.09-.28.18-.41.27-.04.03-.08.04-.13.04Z"/>
        <path d="M23.6,150.3c-.13,0-.24-.11-.24-.24v-5.3c0-.13.11-.24.24-.24s.24.11.24.24v5.3c0,.13-.11.24-.24.24Z"/>
        <path d="M75.26,59.26c-.13,0-.23-.1-.24-.23l-.16-3.03c0-.12.08-.23.19-.25l1.41-.27c.11-.02.21.03.26.13l.49,1c.04.09.03.19-.04.27l-.65.74c-.05.05-.11.08-.18.08h-.92l.07,1.31c0,.13-.1.25-.23.25,0,0,0,0-.01,0ZM75.41,57.21h.84l.47-.54-.34-.69-1.02.2.05,1.03Z"/>
        <path d="M67.56,44.33c-.13,0-.24-.11-.24-.24v-3.06c0-.1.07-.2.17-.23.53-.17,1.09-.29,1.53-.02.34.21.56.62.66,1.26.02.12-.06.24-.18.27l-1.63.44s-.04,0-.06,0v1.32c0,.13-.11.24-.24.24ZM67.8,41.21v1.06l1.35-.37c-.08-.36-.22-.6-.39-.71-.2-.12-.48-.12-.96.02Z"/>
        <path d="M217.24,100.08s-.02,0-.03,0l-4.58-.48c-.13-.01-.23-.13-.21-.26.01-.13.13-.23.26-.21l4.58.48c.13.01.23.13.21.26-.01.12-.12.22-.24.22Z"/>
        <path d="M61.9,72.99c-.13,0-.24-.11-.24-.24v-5.06c0-.13.11-.24.24-.24s.24.11.24.24v5.06c0,.13-.11.24-.24.24Z"/>
        <path d="M188.7,96.59s-.02,0-.03,0l-4.34-.6c-.13-.02-.22-.14-.21-.27s.14-.22.27-.21l4.34.6c.13.02.22.14.21.27-.02.12-.12.21-.24.21Z"/>
        <path d="M69.42,112.79c-.36,0-.77-.07-1.21-.2-.13-.04-.2-.17-.16-.3.04-.13.17-.2.3-.16.93.27,1.63.23,2.02-.12.36-.33.48-.94.33-1.78-.02-.13.06-.26.19-.28.13-.02.26.06.28.19.23,1.28-.13,1.91-.48,2.22-.31.28-.74.42-1.26.42Z"/>
        <path d="M67.8,158.61c-.13,0-.23-.1-.24-.22,0-.13.09-.25.22-.26l.72-.05c.92-.06,1.87-.12,2.81-.2.02-.03.03-.06.05-.09.03-.06.06-.11.09-.16.07-.11.22-.14.33-.07.11.07.14.22.07.33-.02.03-.04.07-.06.11-.07.15-.17.33-.36.34-.96.08-1.94.15-2.89.21l-.72.05s-.01,0-.02,0Z"/>
        <path d="M67.8,160.65s-.09-.01-.13-.04c-.11-.07-.14-.22-.07-.33.02-.03.04-.07.06-.11.07-.15.17-.33.36-.34.96-.08,1.94-.15,2.89-.21l.72-.05c.13-.01.25.09.26.22,0,.13-.09.25-.22.26l-.72.05c-.92.06-1.87.12-2.81.2-.02.03-.03.06-.05.09-.03.06-.06.11-.09.16-.05.07-.12.11-.2.11Z"/>
        <path d="M236.75,102.25s-.02,0-.03,0l-4.09-.48c-.13-.02-.23-.14-.21-.27s.13-.23.27-.21l4.09.48c.13.02.23.14.21.27-.01.12-.12.21-.24.21Z"/>
        <path d="M81.06,43.13c-.31,0-.64-.14-1.01-.42-.11-.08-.13-.23-.04-.34.08-.11.23-.13.34-.04.34.26.62.36.84.31.22-.05.42-.26.61-.63l-1.84-1.12c-.11-.07-.15-.21-.09-.32.23-.42.55-.91,1.04-.98.33-.05.66.11,1.02.48.09.1.09.25,0,.34-.1.09-.25.09-.34,0-.24-.25-.45-.36-.61-.34-.17.02-.36.2-.57.54l1.83,1.11c.1.06.14.19.09.31-.29.63-.62.98-1.03,1.09-.08.02-.16.03-.24.03Z"/>
        <path d="M89.95,108.51c-.12,0-.23-.09-.24-.22-.01-.13.09-.25.22-.26l4.09-.36c.13,0,.25.09.26.22s-.09.25-.22.26l-4.09.36s-.01,0-.02,0Z"/>
        <path d="M232.65,110.32c-.07,0-.13-.03-.18-.08-.09-.1-.08-.25.01-.34l4.28-3.92-.15-2.39c0-.13.09-.25.23-.26.14,0,.25.09.26.23l.15,2.5c0,.07-.02.14-.08.19l-4.37,4s-.1.06-.16.06Z"/>
        <path d="M55.99,43.6c-.13,0-.23-.1-.24-.23,0-.13.09-.25.23-.25l3.97-.24c.13,0,.25.09.25.23s-.09.25-.23.25l-3.97.24s0,0-.01,0Z"/>
        <path d="M89.95,140.9c-.12,0-.23-.09-.24-.22-.01-.13.08-.25.22-.26l3.85-.36c.13-.01.25.08.26.22.01.13-.08.25-.22.26l-3.85.36s-.02,0-.02,0Z"/>
        <path d="M173.73,63.29c-.07,0-.14-.03-.18-.09l-1.65-1.98c-.09-.1-.07-.25.03-.34.1-.09.25-.07.34.03l1.46,1.75,1.29-1.74c.08-.11.23-.13.34-.05.11.08.13.23.05.34l-1.48,1.98c-.04.06-.11.09-.19.1,0,0,0,0,0,0Z"/>
        <path d="M63.7,44.57s-.05,0-.08-.01c-.13-.05-.19-.18-.14-.31l1.19-3.29c.03-.09.12-.16.22-.16.11,0,.19.06.23.15l1.22,3.05c.05.12-.01.26-.13.31-.12.05-.26-.01-.31-.13l-.98-2.47-.97,2.7c-.04.1-.13.16-.23.16Z"/>
        <path d="M172.19,61.2c-1.49,0-3-1.22-3.35-2.73-.03-.13.05-.26.18-.29.13-.03.26.05.29.18.31,1.35,1.69,2.42,3,2.35.44-.02.88-.02,1.31,0,.44,0,.9.02,1.34-.01,1.35-.09,2.39-.65,3.07-1.69.07-.11.22-.14.33-.07.11.07.14.22.07.33-.77,1.17-1.92,1.81-3.44,1.9-.46.03-.93.02-1.38.01-.42,0-.85-.02-1.27,0-.05,0-.1,0-.15,0Z"/>
        <path d="M23.04,132.37c-.54,0-1.09-.06-1.48-.2-.07-.02-.13-.08-.15-.15-.02-.07-.01-.15.03-.21l2.21-3.32c.07-.11.22-.14.33-.07.11.07.14.22.07.33l-2.02,3.04c1,.21,2.43.03,2.76-.23.1-.08.26-.07.34.04.08.1.07.26-.04.34-.34.27-1.19.42-2.04.42Z"/>
        <path d="M55.63,96.83c-.13,0-.24-.11-.24-.24v-3.61c0-.13.11-.24.24-.24s.24.11.24.24v3.61c0,.13-.11.24-.24.24Z"/>
        <path d="M187.49,46.98s-.05,0-.08-.01l-1.51-.52c-.1-.03-.16-.12-.16-.23v-2.06c0-.1.06-.19.16-.23l1.14-.44c.12-.05.26.02.31.14.05.12-.02.26-.14.31l-.99.38v1.72l1.34.46c.13.04.19.18.15.31-.03.1-.13.16-.23.16Z"/>
        <path d="M69.4,145.46c-.47,0-.96-.18-1.23-.86-.05-.12.01-.26.14-.31.12-.05.26.01.31.14.27.7.81.62,1.54.42l.09-.02c.24-.06.38-.23.45-.36.15-.27.19-.63.09-.96-.08-.27-.23-.62-.51-.75-.19-.09-.42-.07-.7.05-.12.05-.26,0-.32-.12-.05-.12,0-.26.12-.32.41-.18.78-.2,1.1-.05.35.16.61.53.77,1.05.13.45.08.95-.13,1.33-.17.31-.43.51-.75.59l-.09.02c-.24.06-.55.15-.88.15Z"/>
        <path d="M32.87,80.69c-.12,0-.23-.09-.24-.22l-.19-2.08-2.42.48c-.13.03-.26-.06-.28-.19s.06-.26.19-.28l2.68-.54c.07-.01.14,0,.19.04.05.04.09.1.1.17l.21,2.34c.01.13-.09.25-.22.26,0,0-.01,0-.02,0Z"/>
        <path d="M57.44,96.83s0,0,0,0c-.13,0-.24-.12-.23-.25l.12-3.37c0-.13.12-.24.25-.23.13,0,.24.12.23.25l-.12,3.37c0,.13-.11.23-.24.23Z"/>
        <path d="M24.2,132.23c-.13,0-.23-.1-.24-.23l-.22-3.61c0-.07.02-.13.06-.18s.11-.08.18-.08h.46c.13,0,.24.11.24.24s-.11.24-.24.24h-.21l.21,3.36c0,.13-.09.25-.23.26,0,0-.01,0-.02,0Z"/>
        <path d="M35.76,37.58c-.06,0-.12-.02-.17-.07-.09-.09-.09-.25,0-.34.04-.04.09-.08.14-.13.06-.05.14-.12.16-.16.49-1.24.97-2.51,1.44-3.74l.38-1c.03-.08.1-.14.19-.15l.34-.05c.11-.02.22.04.26.15l1.94,4.91c.05.12-.01.26-.14.31-.12.05-.26-.01-.31-.14l-1.87-4.73h0s-.33.87-.33.87c-.47,1.23-.95,2.5-1.44,3.74-.06.16-.19.26-.3.35-.04.03-.08.06-.11.09-.05.05-.11.07-.17.07Z"/>
        <path d="M185.81,54.32s-.09-.01-.14-.04c-.56-.38-.87-.9-.88-1.46-.01-.62.34-1.22.99-1.7.11-.08.26-.06.34.05.08.11.06.26-.05.34-.52.38-.81.85-.8,1.31,0,.41.24.78.67,1.07.11.07.14.22.06.33-.05.07-.12.11-.2.11Z"/>
        <path d="M39.67,62.18c-.06,0-.12-.02-.17-.07-.05-.05-.08-.12-.07-.19l.19-3.16c0-.13.12-.24.25-.23.13,0,.23.12.23.25l-.17,2.88,1.23-.12c.13-.01.25.08.26.22.01.13-.08.25-.22.26l-1.51.15s-.02,0-.02,0Z"/>
        <path d="M59.73,95.87s-.01,0-.02,0c-.13-.01-.23-.13-.22-.26l.24-3.13c.01-.13.13-.23.26-.22.13.01.23.13.22.26l-.24,3.13c0,.13-.12.22-.24.22Z"/>
        <path d="M22.76,99.96c-.13,0-.24-.11-.24-.24v-3.61c0-.13.11-.24.24-.24s.24.11.24.24v3.61c0,.13-.11.24-.24.24Z"/>
        <path d="M76.71,70.58c-.07,0-.15-.03-.19-.1-.08-.11-.06-.26.05-.34.04-.03.09-.07.13-.12.13-.13.28-.27.49-.28.6-.03,1.2-.02,1.79-.02.21,0,.42,0,.63,0,.13,0,.24.11.24.24s-.11.24-.24.24c-.21,0-.42,0-.63,0-.58,0-1.18,0-1.76.02-.03,0-.12.09-.18.15-.06.05-.11.11-.17.15-.04.03-.09.05-.14.05Z"/>
        <path d="M94.17,91.29c-.12,0-.22-.09-.24-.21l-.17-1.41c0-.07.01-.13.05-.18.04-.05.1-.08.17-.09l1.97-.15c.13-.01.25.09.26.22.01.13-.09.25-.22.26l-1.72.13.14,1.16c.02.13-.08.25-.21.27,0,0-.02,0-.03,0Z"/>
        <path d="M38.65,62.27h-1.75c-.13,0-.24-.11-.24-.24v-2.76c0-.12.09-.22.21-.24l1.75-.25c.13-.02.25.07.27.2s-.07.25-.2.27l-1.54.22v2.31h1.51c.13,0,.24.11.24.24s-.11.24-.24.24Z"/>
        <path d="M70.2,142.71s-.1-.01-.14-.04c-.11-.08-.13-.23-.06-.34l.67-.94c-.21-.6-.43-.92-.68-.98-.3-.08-.77.18-1.43.79-.1.09-.25.08-.34-.01-.09-.1-.08-.25.01-.34.83-.76,1.39-1.03,1.88-.91.45.12.77.55,1.05,1.41.02.07.01.15-.03.21l-.74,1.04c-.05.07-.12.1-.2.1Z"/>
        <path d="M22.28,75.4c-.13,0-.24-.1-.24-.23,0-.13.1-.24.23-.25l3.37-.12c.14,0,.24.1.25.23,0,.13-.1.24-.23.25l-3.37.12s0,0,0,0Z"/>
        <path d="M20.57,48.08c-.27,0-.59-.14-1.06-.41-.12-.07-.16-.21-.09-.33s.21-.16.33-.09c.88.5.94.53,1.6-.52l-1.08-.37c-.13-.04-.19-.18-.15-.31.04-.13.18-.19.31-.15l1.37.46c.07.02.12.08.15.15.02.07.02.15-.02.21-.59.94-.89,1.35-1.35,1.35Z"/>
        <path d="M26.25,99.48c-.13,0-.24-.1-.24-.23l-.12-3.37c0-.13.1-.24.23-.25.14,0,.24.1.25.23l.12,3.37c0,.13-.1.24-.23.25,0,0,0,0,0,0Z"/>
        <path d="M27.82,99.48s0,0-.01,0c-.13,0-.24-.12-.23-.25l.12-2.89c0-.13.11-.24.25-.23.13,0,.24.12.23.25l-.12,2.89c0,.13-.11.23-.24.23Z"/>
        <path d="M29.5,98.52c-.08,0-.16-.04-.21-.12l-1.45-2.53c-.07-.12-.03-.26.09-.33.12-.07.26-.03.33.09l1.45,2.53c.07.12.03.26-.09.33-.04.02-.08.03-.12.03Z"/>
        <path d="M76.71,68.77c-.12,0-.23-.1-.24-.22-.01-.13.09-.25.22-.26l2.89-.24c.13-.01.25.09.26.22s-.09.25-.22.26l-2.89.24s-.01,0-.02,0Z"/>
        <path d="M34.08,80.45s-.04,0-.06,0c-.13-.03-.21-.16-.18-.29.05-.2.02-.45,0-.71-.06-.65-.15-1.55,1.16-1.78.05,0,.1,0,.15.02.83.41.77,1.09.73,1.64-.02.22-.03.42,0,.6.02.13-.06.26-.19.28-.13.02-.26-.06-.28-.19-.04-.24-.02-.49,0-.73.05-.55.05-.89-.39-1.13-.79.17-.75.6-.69,1.25.03.29.06.59-.01.87-.03.11-.13.18-.23.18Z"/>
        <path d="M64.18,35.42c-.08,0-.15-.04-.2-.11-.07-.11-.04-.26.07-.33.05-.03.1-.06.15-.09.04-.02.09-.05.11-.06.46-1.21.91-2.45,1.35-3.64l.33-.91c.05-.12.18-.19.31-.14.12.05.19.18.14.31l-.33.91c-.44,1.2-.9,2.45-1.36,3.66-.06.16-.22.24-.34.3-.04.02-.07.04-.1.06-.04.03-.09.04-.13.04Z"/>
        <path d="M44.8,46.01c-.13,0-.24-.11-.24-.24v-2.89c0-.13.11-.24.24-.24s.24.11.24.24v2.89c0,.13-.11.24-.24.24Z"/>
        <path d="M26.61,63.35c-.09,0-.18-.05-.22-.14l-1.32-2.89c-.06-.12,0-.26.12-.32.12-.06.26,0,.32.12l1.32,2.89c.06.12,0,.26-.12.32-.03.01-.07.02-.1.02Z"/>
        <path d="M92.12,42.16h-1.45c-.13,0-.24-.11-.24-.24v-2.89c0-.13.11-.24.24-.24s.24.11.24.24v2.65h1.2c.13,0,.24.11.24.24s-.11.24-.24.24Z"/>
        <path d="M35.88,46.74c-.13,0-.24-.11-.24-.24v-2.89c0-.13.11-.24.24-.24s.24.11.24.24v2.89c0,.13-.11.24-.24.24Z"/>
        <path d="M171.24,51.43c-.13,0-.24-.11-.24-.24v-2.77c0-.13.11-.24.24-.24s.24.11.24.24v2.77c0,.13-.11.24-.24.24Z"/>
        <path d="M95.25,41.92h-1.63c-.13,0-.24-.11-.24-.24v-2.72c0-.11.07-.2.17-.23l1.38-.42c.13-.04.26.03.3.16.04.13-.03.26-.16.3l-1.21.36v2.3h1.38c.13,0,.24.11.24.24s-.11.24-.24.24Z"/>
        <path d="M37.69,46.74c-.13,0-.23-.1-.24-.23l-.14-2.77c0-.12.07-.22.19-.25l.35-.08c.09-.02.19.02.24.09l1.53,1.99v-2.37c0-.13.11-.24.24-.24s.24.11.24.24v3.08c0,.1-.07.19-.16.23-.1.03-.21,0-.27-.08l-1.86-2.44h0s.13,2.56.13,2.56c0,.13-.1.25-.23.25,0,0,0,0-.01,0Z"/>
        <path d="M46.6,46.01c-.13,0-.23-.1-.24-.23l-.13-2.77c0-.12.07-.22.19-.25l.36-.08c.1-.02.19.02.25.1l1.82,2.61c.08.11.05.26-.06.34-.11.08-.26.05-.34-.06l-1.73-2.47h0s.12,2.56.12,2.56c0,.13-.1.25-.23.25,0,0,0,0-.01,0Z"/>
        <path d="M68.52,34.93c-.09,0-.18-.06-.22-.15l-1.81-4.34c-.05-.12,0-.26.13-.31.12-.05.26,0,.31.13l1.81,4.34c.05.12,0,.26-.13.31-.03.01-.06.02-.09.02Z"/>
        <path d="M31.07,99c-.13,0-.24-.1-.24-.23l-.12-3.37c0-.13.1-.24.23-.25.14,0,.24.1.25.23l.12,3.37c0,.13-.1.24-.23.25,0,0,0,0,0,0Z"/>
        <path d="M80.08,58.66h-1.75c-.13,0-.24-.11-.24-.24v-2.89c0-.13.11-.24.24-.24h1.51c.13,0,.24.11.24.24s-.11.24-.24.24h-1.26v2.41h1.51c.13,0,.24.11.24.24s-.11.24-.24.24Z"/>
        <path d="M132.1,40.59c-.13,0-.24-.11-.24-.24v-2.65c0-.13.11-.24.24-.24s.24.11.24.24v2.65c0,.13-.11.24-.24.24Z"/>
        <path d="M144.74,41.32c-.13,0-.24-.11-.24-.24v-2.65c0-.13.11-.24.24-.24s.24.11.24.24v2.65c0,.13-.11.24-.24.24Z"/>
        <path d="M57.08,24.46c-.13,0-.23-.1-.24-.23,0-.13.1-.25.23-.25l2.65-.12c.13,0,.25.1.25.23,0,.13-.1.25-.23.25l-2.65.12s0,0-.01,0Z"/>
        <path d="M171.24,42.04c-.13,0-.24-.11-.24-.24v-2.65c0-.13.11-.24.24-.24s.24.11.24.24v2.65c0,.13-.11.24-.24.24Z"/>
        <path d="M45.76,147.89c-.12,0-.22-.09-.24-.21-.02-.13.08-.25.21-.27l2.77-.36c.13-.02.25.08.27.21.02.13-.08.25-.21.27l-2.77.36s-.02,0-.03,0Z"/>
        <path d="M42.39,46.01c-.13,0-.23-.1-.24-.23l-.12-2.53c0-.13.1-.25.23-.25.13,0,.25.1.25.23l.12,2.53c0,.13-.1.25-.23.25,0,0,0,0-.01,0Z"/>
        <path d="M24.56,99s-.08,0-.11-.03c-.12-.06-.16-.21-.1-.33l1.32-2.53c.06-.12.21-.16.33-.1.12.06.16.21.1.33l-1.32,2.53c-.04.08-.13.13-.21.13Z"/>
        <path d="M84.65,58.21c-.06,0-.12-.02-.16-.06-.05-.05-.08-.11-.08-.18v-2.68c0-.13.11-.24.24-.24s.24.11.24.24v2.42l1.42-.13c.14,0,.25.09.26.22.01.13-.09.25-.22.26l-1.69.15s-.01,0-.02,0Z"/>
        <path d="M26.73,62.63s-.07,0-.11-.03c-.12-.06-.17-.2-.11-.32l1.2-2.41c.06-.12.2-.17.32-.11.12.06.17.2.11.32l-1.2,2.41c-.04.08-.13.13-.22.13Z"/>
        <path d="M28.06,63.35c-.13,0-.23-.1-.24-.23l-.12-2.41c0-.13.1-.25.23-.25.13,0,.25.1.25.23l.12,2.41c0,.13-.1.25-.23.25,0,0,0,0-.01,0Z"/>
        <path d="M25.17,63.59s0,0-.01,0c-.13,0-.24-.12-.23-.25l.12-2.41c0-.13.12-.23.25-.23.13,0,.24.12.23.25l-.12,2.41c0,.13-.11.23-.24.23Z"/>
        <path d="M29.5,99.24s-.06,0-.09-.02c-.12-.05-.18-.19-.13-.32l1.32-3.13c.05-.12.19-.18.32-.13.12.05.18.19.13.32l-1.32,3.13c-.04.09-.13.15-.22.15Z"/>
        <path d="M24.32,99c-.08,0-.16-.04-.21-.12l-1.32-2.29c-.07-.12-.03-.26.09-.33.12-.07.26-.03.33.09l1.32,2.29c.07.12.03.26-.09.33-.04.02-.08.03-.12.03Z"/>
        <path d="M179.3,32.53h-2.41c-.13,0-.24-.11-.24-.24s.11-.24.24-.24h2.41c.13,0,.24.11.24.24s-.11.24-.24.24Z"/>
        <path d="M227.23,35.66h-2.41c-.13,0-.24-.11-.24-.24s.11-.24.24-.24h2.41c.13,0,.24.11.24.24s-.11.24-.24.24Z"/>
        <path d="M39.38,35.66h-2.41c-.13,0-.24-.11-.24-.24s.11-.24.24-.24h2.41c.13,0,.24.11.24.24s-.11.24-.24.24Z"/>
        <path d="M48.65,45.05s0,0-.01,0c-.13,0-.24-.12-.23-.25l.12-2.41c0-.13.12-.24.25-.23.13,0,.24.12.23.25l-.12,2.41c0,.13-.11.23-.24.23Z"/>
        <path d="M59.97,96.59c-.08,0-.15-.04-.2-.11l-2.05-3.01c-.07-.11-.05-.26.06-.33.11-.07.26-.05.33.06l2.05,3.01c.07.11.05.26-.06.33-.04.03-.09.04-.14.04Z"/>
        <path d="M69.36,22.65c-.12,0-.23-.09-.24-.22-.01-.13.08-.25.21-.26l2.29-.24c.13-.01.25.08.26.21.01.13-.08.25-.21.26l-2.29.24s-.02,0-.03,0Z"/>
        <path d="M65.39,33.49c-.13,0-.23-.1-.24-.23,0-.13.1-.25.23-.25l2.29-.12c.13,0,.25.1.25.23,0,.13-.1.25-.23.25l-2.29.12s0,0-.01,0Z"/>
        <path d="M90.19,126.45c-.06,0-.12-.02-.16-.07-.1-.09-.1-.24-.01-.34l3.61-3.85c.09-.1.24-.1.34-.01.1.09.1.24.01.34l-3.61,3.85c-.05.05-.11.08-.18.08Z"/>
        <path d="M168.83,43.36c-.06,0-.11-.02-.16-.06l-2.17-1.93c-.1-.09-.11-.24-.02-.34.09-.1.24-.11.34-.02l2.17,1.93c.1.09.11.24.02.34-.05.05-.11.08-.18.08Z"/>
        <path d="M92,156.8c-.13,0-.23-.1-.24-.23l-.12-2.17c0-.13.09-.25.23-.25.14,0,.25.09.25.23l.12,2.17c0,.13-.09.25-.23.25,0,0,0,0-.01,0Z"/>
        <path d="M37.09,80.21c-.12,0-.22-.09-.24-.21-.03-.25-.02-.5,0-.74.03-.52.06-.98-.35-1.34l-.59.43c-.11.08-.26.06-.34-.05-.08-.11-.06-.26.05-.34l.73-.54c.08-.06.19-.06.28,0,.77.53.73,1.24.69,1.86-.01.23-.03.45,0,.65.02.13-.08.25-.21.27-.01,0-.02,0-.03,0Z"/>
        <path d="M151.37,41.8s0,0-.01,0c-.13,0-.24-.12-.23-.25l.12-2.77c0-.13.12-.23.25-.23.13,0,.24.12.23.25l-.12,2.77c0,.13-.11.23-.24.23Z"/>
        <path d="M86.82,42.64s-.06,0-.09-.02c-.12-.05-.18-.19-.13-.32l1.32-3.13c.05-.12.19-.18.32-.13.12.05.18.19.13.32l-1.32,3.13c-.04.09-.13.15-.22.15Z"/>
        <path d="M20.95,46.25s-.06,0-.09-.02c-.12-.05-.18-.19-.13-.32l.42-.97-.08-.08-1.36.42c-.13.04-.26-.03-.3-.16-.04-.13.03-.26.16-.3l1.5-.46c.08-.03.18,0,.24.06l.3.3c.07.07.09.17.05.27l-.48,1.12c-.04.09-.13.15-.22.15Z"/>
        <path d="M175.57,49.51c-.06,0-.13-.03-.18-.08l-1.81-1.93c-.09-.1-.09-.25.01-.34.1-.09.25-.09.34.01l1.81,1.93c.09.1.09.25-.01.34-.05.04-.11.07-.16.07Z"/>
        <path d="M89.95,157.04c-.12,0-.22-.09-.24-.21-.02-.13.08-.25.21-.27l4.09-.48c.13-.02.25.08.27.21.02.13-.08.25-.21.27l-4.09.48s-.02,0-.03,0Z"/>
        <path d="M166.9,49.02c-.07,0-.13-.03-.18-.08-.09-.1-.08-.25.02-.34l1.93-1.69c.1-.09.25-.08.34.02.09.1.08.25-.02.34l-1.93,1.69s-.1.06-.16.06Z"/>
        <path d="M29.74,80.93c-.13,0-.24-.11-.24-.24v-2.41c0-.13.11-.24.24-.24s.24.11.24.24v2.41c0,.13-.11.24-.24.24Z"/>
        <path d="M173.77,43.6c-.07,0-.14-.03-.19-.09-.08-.1-.07-.25.04-.34l1.93-1.57c.1-.08.25-.07.34.04.08.1.07.25-.04.34l-1.93,1.57s-.1.05-.15.05Z"/>
        <path d="M92,158.97c-.13,0-.23-.1-.24-.23l-.12-1.93c0-.13.09-.25.23-.26.13,0,.25.09.26.23l.12,1.93c0,.13-.09.25-.23.26,0,0-.01,0-.02,0Z"/>
        <path d="M87.06,94.18s-.05,0-.08-.01c-.13-.04-.19-.18-.15-.3l.41-1.23c.03-.09.11-.15.2-.16l1.7-.22-.84-1.57c-.06-.12-.02-.26.1-.33.12-.06.26-.02.33.1l1.01,1.87c.04.07.04.15,0,.22s-.1.12-.18.13l-1.89.24-.36,1.09c-.03.1-.13.16-.23.16Z"/>
        <path d="M81.04,58.54s-.06,0-.09-.02c-.12-.05-.18-.19-.14-.31l1.2-3.08c.04-.09.12-.15.22-.15.09,0,.19.06.22.15l1.09,2.71c.05.12-.01.26-.13.31-.12.05-.26-.01-.31-.13l-.86-2.15-.98,2.51c-.04.1-.13.15-.22.15Z"/>
        <path d="M31.31,80.69c-.13,0-.24-.11-.24-.24v-1.81c0-.13.11-.24.24-.24s.24.11.24.24v1.81c0,.13-.11.24-.24.24Z"/>
        <path d="M87.79,92.74s-.03,0-.05,0c-.13-.03-.21-.16-.19-.29l.36-1.69c.03-.13.16-.21.29-.19.13.03.21.16.19.29l-.36,1.69c-.02.11-.12.19-.24.19Z"/>
        <path d="M69.84,30c-.13,0-.23-.1-.24-.22,0-.13.09-.25.22-.26l3.49-.24c.14,0,.25.09.26.22s-.09.25-.22.26l-3.49.24s-.01,0-.02,0Z"/>
        <path d="M88.27,68.77c-.12,0-.22-.09-.24-.21-.02-.13.07-.25.2-.27l1.69-.24c.13-.02.25.07.27.2.02.13-.07.25-.2.27l-1.69.24s-.02,0-.03,0Z"/>
        <path d="M73.22,68.41s-.02,0-.03,0c-.13-.02-.22-.14-.2-.27l.24-1.69c.02-.13.14-.22.27-.2.13.02.22.14.2.27l-.24,1.69c-.02.12-.12.21-.24.21Z"/>
        <path d="M95.85,66.48s-.02,0-.03,0c-.13-.02-.22-.14-.2-.27l.24-1.69c.02-.13.14-.22.27-.2.13.02.22.14.2.27l-.24,1.69c-.02.12-.12.21-.24.21Z"/>
        <path d="M86.46,67.33s-.02,0-.04,0c-.13-.02-.22-.14-.2-.27l.24-1.57c.02-.13.14-.22.27-.2.13.02.22.14.2.27l-.24,1.57c-.02.12-.12.2-.24.2Z"/>
        <path d="M93.45,126.09c-.06,0-.12-.02-.16-.06l-1.45-1.32c-.1-.09-.1-.24-.01-.34.09-.1.24-.1.34-.01l1.45,1.32c.1.09.1.24.01.34-.05.05-.11.08-.18.08Z"/>
        <path d="M74.9,42.04c-.12,0-.23-.1-.24-.22-.01-.13.09-.25.22-.26l1.57-.12c.13-.01.25.09.26.22.01.13-.09.25-.22.26l-1.57.12s-.01,0-.02,0Z"/>
        <path d="M89.23,42.4c-.09,0-.18-.05-.22-.14l-1.08-2.41c-.05-.12,0-.26.12-.32.12-.05.26,0,.32.12l1.08,2.41c.05.12,0,.26-.12.32-.03.01-.07.02-.1.02Z"/>
        <path d="M187.37,43.48c-.09,0-.17-.05-.22-.13-.06-.12-.01-.26.11-.32l1.45-.72c.12-.06.26-.01.32.11.06.12.01.26-.11.32l-1.45.72s-.07.03-.11.03Z"/>
        <path d="M97.06,66.24s-.03,0-.04,0c-.13-.02-.22-.15-.2-.28l.24-1.45c.02-.13.15-.22.28-.2.13.02.22.15.2.28l-.24,1.45c-.02.12-.12.2-.24.2Z"/>
        <path d="M227.35,37.7c-.1,0-.19-.06-.23-.16-.04-.13.03-.26.15-.3l1.45-.48c.13-.04.26.03.3.15s-.03.26-.15.3l-1.45.48s-.05.01-.08.01Z"/>
        <path d="M76.83,43.36c-.13,0-.24-.1-.24-.23l-.12-2.89c0-.13.1-.25.23-.25.13,0,.24.1.25.23l.12,2.89c0,.13-.1.25-.23.25,0,0,0,0-.01,0Z"/>
        <path d="M201.7,94.9c-.07,0-.14-.03-.19-.09-.09-.1-.07-.25.03-.34l1.45-1.2c.1-.09.25-.07.34.03.09.1.07.25-.03.34l-1.45,1.2s-.1.06-.15.06Z"/>
        <path d="M74.66,43.6c-.13,0-.24-.11-.24-.24v-2.89c0-.13.11-.24.24-.24s.24.11.24.24v2.89c0,.13-.11.24-.24.24Z"/>
        <path d="M91.76,124.29c-.06,0-.12-.02-.16-.06l-1.45-1.32c-.1-.09-.1-.24-.01-.34.09-.1.24-.1.34-.01l1.45,1.32c.1.09.1.24.01.34-.05.05-.11.08-.18.08Z"/>
        <path d="M38.41,60.82h-1.32c-.13,0-.24-.11-.24-.24s.11-.24.24-.24h1.32c.13,0,.24.11.24.24s-.11.24-.24.24Z"/>
        <path d="M69.48,44.09c-.08,0-.15-.04-.2-.1l-.84-1.2c-.08-.11-.05-.26.06-.34.11-.08.26-.05.34.06l.84,1.2c.08.11.05.26-.06.34-.04.03-.09.04-.14.04Z"/>
        <path d="M78.51,57.21c-.12,0-.23-.09-.24-.22-.01-.13.09-.25.22-.26l1.32-.12c.13,0,.25.09.26.22.01.13-.09.25-.22.26l-1.32.12s-.01,0-.02,0Z"/>
        <path d="M34.32,46.98c-.08,0-.15-.04-.2-.1-.08-.12-.16-.24-.24-.37-.19-.29-.36-.57-.59-.78-.05-.05-.26-.05-.38-.06-.1,0-.21,0-.31-.02-.13-.02-.22-.14-.2-.27.02-.13.14-.22.27-.2.08.01.17.01.25.02.24,0,.52.02.7.19.27.26.47.57.66.87.08.12.15.24.23.35.08.11.05.26-.06.34-.04.03-.09.04-.14.04Z"/>
        <path d="M164.13,102.49c-.12,0-.23-.09-.24-.22-.01-.13.08-.25.22-.26l1.2-.12c.14-.01.25.08.26.22.01.13-.08.25-.22.26l-1.2.12s-.02,0-.02,0Z"/>
        <path d="M81.64,57.57c-.12,0-.23-.09-.24-.22-.01-.13.08-.25.22-.26l1.2-.12c.13-.01.25.08.26.22.01.13-.08.25-.22.26l-1.2.12s-.02,0-.02,0Z"/>
        <path d="M147.27,22.17h-1.2c-.13,0-.24-.11-.24-.24s.11-.24.24-.24h1.2c.13,0,.24.11.24.24s-.11.24-.24.24Z"/>
        <path d="M41.3,43.24c-.13,0-.23-.1-.24-.23,0-.13.09-.25.23-.25l2.17-.12c.14,0,.25.09.25.23,0,.13-.09.25-.23.25l-2.17.12s0,0-.01,0Z"/>
        <path d="M77.19,59.02c-.07,0-.14-.03-.19-.09l-.84-1.08c-.08-.11-.06-.26.04-.34.1-.08.26-.06.34.04l.84,1.08c.08.11.06.26-.04.34-.04.03-.1.05-.15.05Z"/>
        <path d="M59.37,44.57s-.1-.02-.14-.05c-.11-.08-.13-.23-.05-.34l.78-1.06-.76-.8c-.09-.1-.09-.25,0-.34.1-.09.25-.09.34,0l.89.94c.08.08.09.21.02.31l-.89,1.22c-.05.06-.12.1-.19.1Z"/>
        <path d="M244.33,125.73s-.07,0-.11-.03c-.12-.06-.17-.2-.11-.32l.48-.96c.06-.12.2-.17.32-.11.12.06.17.2.11.32l-.48.96c-.04.08-.13.13-.22.13Z"/>
        <path d="M190.62,96.83h-.96c-.13,0-.24-.11-.24-.24s.11-.24.24-.24h.96c.13,0,.24.11.24.24s-.11.24-.24.24Z"/>
        <path d="M150.64,22.17h-.96c-.13,0-.24-.11-.24-.24s.11-.24.24-.24h.96c.13,0,.24.11.24.24s-.11.24-.24.24Z"/>
        <path d="M93.81,40.47c-.12,0-.22-.09-.24-.21-.02-.13.08-.25.21-.27l.96-.12c.13-.02.25.08.27.21s-.08.25-.21.27l-.96.12s-.02,0-.03,0Z"/>
        <path d="M244.71,127.18s-.03,0-.05,0c-.26-.03-.38-.28-.48-.48-.02-.04-.04-.08-.06-.12-.06-.12-.02-.26.1-.33.12-.06.26-.02.33.1.02.05.05.09.07.14.03.06.07.15.11.2.03-.02.08-.06.15-.14.09-.1.24-.12.34-.03.1.09.12.24.03.34-.12.14-.3.33-.53.33Z"/>
        <path d="M123.55,30.84c-.12,0-.22-.09-.24-.21-.02-.13.07-.25.2-.27l.84-.12c.13-.02.25.07.27.2.02.13-.07.25-.2.27l-.84.12s-.02,0-.03,0Z"/>
        <path d="M124.39,30.96h-1.45c-.13,0-.24-.11-.24-.24s.11-.24.24-.24h1.45c.13,0,.24.11.24.24s-.11.24-.24.24Z"/>
        <path d="M203.87,93.22c-.06,0-.12-.02-.17-.07-.09-.09-.09-.25,0-.34l.48-.48c.09-.09.25-.09.34,0s.09.25,0,.34l-.48.48s-.11.07-.17.07Z"/>
        <path d="M42.62,73.85c-.37,0-.8-.11-1.27-.32-.05-.02-.1-.07-.12-.12-.05-.1-.1-.21-.15-.32-.12-.26-.26-.56-.37-.86-.62-1.74,0-3.87,1.41-4.85.06-.04.13-.05.2-.04,0,0,.01,0,.02,0,1.03-.19,1.79.38,2.04,1.52.2.93.13,1.96.03,2.84-.11.99-.45,1.65-1,1.96-.23.13-.5.2-.79.2ZM41.64,73.13c.65.28,1.17.31,1.54.1.41-.23.66-.77.76-1.6.1-.84.17-1.82-.02-2.68-.11-.51-.45-1.33-1.48-1.15-.03,0-.06,0-.08,0-1.2.88-1.72,2.73-1.17,4.26.1.28.23.55.35.82.04.08.08.17.11.25Z"/>
        <path d="M15.92,154.78c-.77,0-1.32-.17-1.71-.52-.47-.43-.7-1.11-.71-2.15-.03-2.69-.03-5.14,0-7.47.02-1.86,1.22-3.06,3.11-3.13,1.2-.05,2.3-.13,3.36-.24,1.25-.13,2.52-.29,3.75-.44.76-.09,1.52-.19,2.27-.27,1-.12,2.01-.23,3.01-.34l1.32-.15s.06,0,.09,0c.03,0,.05,0,.08,0,1.56.13,2.26.84,2.26,2.29,0,2.7,0,5.54,0,8.43,0,1.37-.89,2.36-2.26,2.53-.46.06-.92.12-1.38.18-.81.11-1.65.22-2.48.3-3.34.33-6.69.65-10.12.97-.21.02-.41.03-.6.03ZM30.41,140.53s-.02,0-.03,0l-1.32.15c-1,.11-2.01.22-3.01.34-.76.09-1.51.18-2.27.27-1.23.15-2.5.31-3.75.44-1.07.11-2.18.19-3.39.24-1.64.07-2.63,1.06-2.65,2.66-.03,2.33-.03,4.77,0,7.46,0,.9.18,1.47.55,1.8.38.34,1,.46,1.95.37,3.42-.32,6.77-.63,10.11-.97.82-.08,1.65-.19,2.46-.3.46-.06.92-.12,1.39-.18,1.13-.14,1.83-.92,1.83-2.05,0-2.89,0-5.72,0-8.43,0-1.21-.5-1.7-1.82-1.81-.01,0-.03,0-.04,0Z"/>
        <path d="M34.64,74.54c-1.25,0-1.63-.95-1.88-1.85-.58-2.04.19-4.04,1.83-4.74.05-.02.11-.02.15-.01.02,0,.03,0,.05,0,.9-.03,1.54.52,1.67,1.41.16,1.09.2,2.11.12,3.06-.1,1.3-.83,2.12-1.9,2.14-.01,0-.03,0-.04,0ZM34.75,68.4c-1.37.61-2.03,2.39-1.53,4.16.28.98.59,1.52,1.46,1.5.81-.01,1.34-.65,1.43-1.7.07-.91.03-1.9-.12-2.95-.09-.66-.52-1.02-1.17-1-.02,0-.04,0-.06,0Z"/>
        <path d="M15.55,121.71s-.04,0-.05,0c-1.22-.28-1.97-1.3-1.99-2.71v-.44c-.05-2.35-.1-4.78.02-7.16.07-1.32.43-2.7,2.59-2.89.55-.05,1.12-.14,1.66-.23.56-.09,1.14-.18,1.71-.23,1.93-.16,3.89-.31,5.79-.45,1.28-.1,2.56-.19,3.85-.29.13-.01.27-.07.42-.13.08-.03.16-.07.24-.09.05-.02.09-.02.14,0,0,0,.01,0,.02,0,.83-.14,1.54.03,2.05.5.56.5.84,1.31.79,2.29-.09,1.73-.07,3.5-.05,5.21,0,.75.02,1.49.02,2.24,0,2-.89,2.93-2.88,3.02-1.06.05-2.15.13-3.24.24-1.12.12-2.26.25-3.36.37-1.01.12-2.02.23-3.03.34-1.02.11-2.04.2-3.12.3-.5.05-1.02.09-1.57.14,0,0-.01,0-.02,0ZM29.92,107.54c-.07.02-.13.05-.2.08-.18.07-.36.15-.57.16-1.28.1-2.57.2-3.85.29-1.9.14-3.86.29-5.78.45-.56.05-1.13.14-1.68.23-.55.09-1.12.18-1.7.23-1.49.13-2.07.79-2.15,2.44-.12,2.37-.07,4.79-.03,7.13v.44c.03,1.18.61,2,1.59,2.24.53-.05,1.04-.09,1.53-.14,1.08-.1,2.1-.19,3.11-.3,1.01-.11,2.02-.22,3.02-.34,1.1-.13,2.24-.26,3.36-.37,1.09-.11,2.19-.2,3.27-.24,1.74-.08,2.42-.79,2.42-2.54,0-.74,0-1.49-.02-2.23-.02-1.72-.04-3.5.05-5.24.04-.82-.18-1.5-.63-1.9-.4-.36-.98-.49-1.65-.38-.03,0-.07,0-.1,0Z"/>
        <path d="M29.28,74.99c-.05,0-.11,0-.16,0-.62-.06-1.3-.57-1.6-1.04-1-1.56-.37-4.33,1.24-5.48.06-.04.13-.05.2-.04.01,0,.03,0,.04,0,1.13-.08,1.85.5,1.92,1.55.09,1.26.09,2.45,0,3.53-.04.46-.25.86-.6,1.14-.29.24-.66.36-1.04.36ZM28.98,68.89c-1.36,1.03-1.9,3.46-1.05,4.79.26.41.83.78,1.24.82.32.03.62-.06.86-.25.24-.19.39-.48.42-.81.09-1.06.1-2.22,0-3.45-.07-.99-.81-1.15-1.41-1.1-.02,0-.04,0-.05,0Z"/>
        <path d="M206.39,153.48s-.03,0-.04,0l-3.31-.57c-2.47-.43-4.93-.86-7.4-1.29l-2.32-.41c-3.98-.69-8.09-1.41-12.13-2.13-1.28-.23-1.75-.78-1.76-2.04,0-1.04,0-2.07,0-3.11,0-.97,0-1.94,0-2.91,0-.7.12-1.55,1.13-1.91.05-.02.1-.02.14,0,.03,0,.06-.01.1,0l3.52.55c2.64.42,5.28.83,7.92,1.25,1.53.25,3.07.5,4.6.75,2.87.47,5.84.96,8.77,1.4,1.35.2,1.99.6,2,2.3,0,.95,0,1.9,0,2.86,0,1.12,0,2.27,0,3.4,0,.59-.1,1.43-1.13,1.85-.03.01-.06.02-.09.02ZM180.69,139.57c-.57.21-.79.62-.79,1.45,0,.97,0,1.94,0,2.91,0,1.04,0,2.07,0,3.11,0,1.03.31,1.38,1.36,1.57,4.04.72,8.15,1.43,12.13,2.13l2.32.41c2.47.43,4.93.86,7.4,1.29l3.24.56c.55-.25.78-.65.77-1.37-.01-1.14,0-2.29,0-3.41,0-.95,0-1.9,0-2.85,0-1.37-.39-1.65-1.6-1.83-2.93-.44-5.9-.93-8.77-1.4-1.53-.25-3.06-.5-4.6-.75-2.64-.42-5.28-.84-7.92-1.25l-3.52-.55s-.01,0-.02,0Z"/>
        <path d="M15.72,85.97c-.77,0-1.44-.23-1.95-.67-.67-.57-1.03-1.49-1.01-2.57.02-1.68.01-3.39,0-5.04,0-.73,0-1.45,0-2.18v-4.38c0-3.76,0-7.51,0-11.27,0-1.86,1.34-3.47,2.99-3.61,2.22-.18,4.48-.35,6.66-.51.99-.07,1.98-.15,2.97-.22l.8-.06c.76-.06,1.55-.11,2.33-.18,1.06-.1,2.13-.2,3.19-.29,1.52-.14,3.09-.29,4.64-.42.98-.08,1.97-.15,2.94-.22,1.13-.08,2.3-.16,3.44-.27,1.08-.1,2.17-.22,3.23-.33,1.23-.13,2.5-.27,3.76-.38,1.26-.11,2.53-.19,3.77-.26,1.13-.07,2.31-.14,3.46-.24,2.31-.19,4.66-.4,6.92-.6,1.34-.12,2.69-.24,4.03-.36.49-.04.98-.08,1.47-.11.58-.04,1.19-.08,1.78-.14.99-.09,1.98-.2,2.97-.3,1.39-.14,2.84-.29,4.26-.41.76-.07,1.53-.1,2.27-.14.68-.03,1.38-.06,2.06-.12,3.62-.29,7.33-.61,11.32-.96.99-.09,2-.21,2.97-.32.45-.05.91-.11,1.36-.16.03,0,.06,0,.09,0,.02,0,.05,0,.07,0,2.12.13,3.12,1.16,3.12,3.25,0,1.55,0,3.1,0,4.65v2.09s0,4.42,0,4.42c0,3.79,0,7.57,0,11.36,0,1.85-1.13,3.23-2.75,3.37-2.26.19-4.55.37-6.77.55l-2.27.18c-.36.03-.72.05-1.08.08-.67.05-1.36.1-2.04.17-.95.1-1.9.21-2.84.31-1.2.14-2.44.28-3.66.4-1.32.13-2.67.24-3.98.35-1.04.09-2.09.17-3.13.27-.94.09-1.9.18-2.83.28-1.05.11-2.13.22-3.19.31-.94.08-1.89.15-2.81.22-1.13.08-2.3.17-3.45.28-1.72.17-3.46.36-5.14.54-1.3.14-2.59.28-3.89.41-3.18.32-6.56.66-9.88.96-2.14.19-4.32.36-6.43.52-.87.07-1.74.13-2.61.2-.36.03-.73.05-1.09.08-.67.05-1.36.1-2.04.17-.87.09-1.75.19-2.62.29-1.27.15-2.59.3-3.88.42-.86.08-1.74.12-2.59.17-1.4.07-2.85.15-4.25.37-.24.04-.48.06-.7.06ZM98.44,49.74s-.02,0-.03,0c-.45.05-.91.1-1.36.16-.98.11-1.99.23-2.98.32-3.99.36-7.7.67-11.32.96-.69.06-1.4.09-2.08.12-.74.03-1.51.07-2.25.13-1.42.12-2.86.27-4.25.41-.99.1-1.98.2-2.97.3-.6.06-1.2.1-1.79.14-.49.03-.98.07-1.46.11-1.34.12-2.69.24-4.03.36-2.27.2-4.62.41-6.93.6-1.15.09-2.33.17-3.47.24-1.23.08-2.51.16-3.76.26-1.25.11-2.52.24-3.75.38-1.06.11-2.15.23-3.23.33-1.15.1-2.32.19-3.45.27-.96.07-1.96.14-2.93.22-1.54.13-3.11.28-4.63.42-1.06.1-2.13.2-3.2.3-.78.07-1.57.13-2.33.18l-.8.06c-.99.07-1.98.15-2.97.22-2.18.16-4.44.33-6.66.51-1.4.11-2.55,1.52-2.55,3.13,0,3.76,0,7.51,0,11.27v4.38c0,.73,0,1.45,0,2.18,0,1.65,0,3.37,0,5.05,0,.94.29,1.72.85,2.2.55.47,1.33.64,2.26.5,1.42-.23,2.88-.3,4.3-.37.85-.04,1.72-.09,2.58-.16,1.29-.12,2.6-.27,3.87-.41.88-.1,1.75-.2,2.63-.29.68-.07,1.38-.12,2.05-.17.36-.03.72-.05,1.08-.08.87-.07,1.74-.14,2.61-.2,2.11-.16,4.28-.33,6.42-.52,3.32-.3,6.7-.64,9.87-.96,1.3-.13,2.59-.27,3.88-.41,1.69-.18,3.43-.37,5.15-.54,1.15-.11,2.33-.2,3.46-.28.92-.07,1.87-.13,2.8-.22,1.06-.09,2.14-.2,3.19-.31.93-.1,1.89-.19,2.83-.28,1.04-.1,2.09-.18,3.13-.27,1.3-.11,2.65-.22,3.97-.35,1.22-.12,2.46-.26,3.65-.4.95-.11,1.9-.22,2.85-.31.69-.07,1.38-.12,2.06-.17.36-.03.72-.05,1.08-.08l2.27-.18c2.22-.17,4.51-.36,6.76-.55,1.36-.11,2.31-1.3,2.31-2.89,0-3.79,0-7.57,0-11.36v-4.42s0-2.09,0-2.09c0-1.55,0-3.1,0-4.65,0-1.83-.8-2.66-2.66-2.77-.02,0-.03,0-.05,0Z"/>
        <path d="M39.65,152.34c-.66,0-1.15-.16-1.49-.47-.4-.37-.59-.96-.59-1.81,0-.81,0-1.61.01-2.42.01-1.89.03-3.84-.04-5.76-.05-1.42.76-2.41,2.16-2.65.55-.09,1.11-.15,1.65-.2.18-.02.35-.03.53-.05.96-.1,1.91-.19,2.87-.29,1.78-.18,3.63-.36,5.44-.56.85-.09,1.72-.21,2.56-.32.39-.05.78-.11,1.17-.16.03,0,.06,0,.09,0,.04-.01.09-.01.13,0,1.89.56,2.22.99,2.22,2.88v2.23c0,1.74,0,3.49,0,5.23,0,1.67-1.03,2.75-2.75,2.9-2.35.2-4.73.46-7.04.7l-1.27.13c-.65.07-1.31.15-1.95.23-1.1.13-2.23.27-3.36.35-.12,0-.23.01-.34.01ZM54.01,138.13s-.02,0-.03,0c-.39.05-.78.1-1.17.15-.84.11-1.71.23-2.57.32-1.81.19-3.66.38-5.44.56-.96.1-1.91.19-2.87.29-.18.02-.36.04-.53.05-.53.05-1.08.1-1.61.19-1.18.2-1.8.97-1.76,2.16.07,1.93.05,3.89.04,5.78,0,.81-.01,1.61-.01,2.41,0,.71.14,1.18.44,1.46.29.27.77.38,1.47.33,1.11-.08,2.24-.22,3.33-.35.64-.08,1.31-.16,1.96-.23l1.27-.13c2.31-.24,4.7-.5,7.05-.7,1.48-.13,2.3-.99,2.31-2.42,0-1.74,0-3.49,0-5.23v-2.23c0-1.67-.19-1.92-1.87-2.42Z"/>
        <path d="M223.04,47.21c-.31,0-.64-.08-.97-.25-.82-.41-.94-1.17-.96-1.78-.02-.9.51-1.54,1.49-1.8.04-.01.08-.01.12,0,.03,0,.07-.01.11,0,.06.01.12.02.18.03.15.02.32.04.47.12.68.31,1.11.73,1.28,1.24.15.46.09.96-.2,1.49-.34.63-.89.96-1.52.96ZM222.72,43.84c-.78.21-1.15.64-1.13,1.33.02.73.22,1.13.69,1.36.78.39,1.47.2,1.85-.51.22-.41.28-.78.17-1.11-.13-.38-.47-.7-1.02-.96-.09-.04-.21-.06-.34-.08-.07,0-.14-.02-.21-.03,0,0,0,0-.01,0Z"/>
        <path d="M62.92,150.02c-.7,0-1.25-.17-1.65-.52-.55-.47-.81-1.23-.81-2.33v-2.24c0-1.78,0-3.56,0-5.35,0-1.62.72-2.45,2.26-2.64,1.91-.22,3.85-.42,5.73-.61,1.18-.12,2.37-.24,3.55-.37.88-.09,1.78-.21,2.64-.32.4-.05.81-.1,1.21-.15.03,0,.06,0,.09,0,.02,0,.04,0,.06,0,2.17,0,2.99.62,3,2.29.03,2.82.03,5.42,0,7.95-.02,1.5-.95,2.58-2.37,2.75-.9.11-1.81.19-2.7.27-.77.07-1.57.14-2.36.23l-1.06.12c-2.22.25-4.52.51-6.76.85-.29.04-.57.07-.82.07ZM75.92,135.96s-.02,0-.03,0c-.4.05-.8.1-1.21.15-.87.11-1.77.23-2.65.32-1.18.13-2.37.25-3.55.37-1.88.19-3.81.39-5.72.61-1.28.15-1.83.8-1.83,2.16,0,1.78,0,3.56,0,5.34v2.24c0,.95.21,1.59.65,1.96.44.38,1.12.49,2.09.34,2.25-.34,4.55-.6,6.78-.86l1.06-.12c.79-.09,1.59-.16,2.37-.23.88-.08,1.79-.16,2.68-.27,1.17-.14,1.93-1.04,1.95-2.28.03-2.53.03-5.13,0-7.94-.01-1.23-.39-1.81-2.52-1.81-.02,0-.04,0-.06,0Z"/>
        <path d="M62.47,117.19c-.62,0-1.08-.15-1.42-.46-.4-.36-.59-.93-.6-1.72,0-2.73,0-5.46,0-8.19,0-1.53.89-2.52,2.39-2.64,1.23-.1,2.45-.2,3.68-.3,1.71-.14,3.49-.28,5.23-.43.82-.07,1.66-.2,2.47-.31.38-.05.75-.11,1.13-.16.03,0,.06,0,.09,0,.02,0,.04,0,.06,0h.38c.28,0,.55,0,.83,0,1.43.02,2.26.81,2.27,2.16.04,3.14.04,5.7,0,8.08-.03,1.66-1.13,2.72-2.87,2.77-1.26.04-2.52.15-3.48.24-1.53.14-3.06.3-4.58.45-1.69.17-3.45.34-5.17.5-.14.01-.28.02-.41.02ZM75.44,103.45s-.02,0-.03,0c-.38.05-.75.1-1.13.16-.82.12-1.66.24-2.5.32-1.74.16-3.52.3-5.24.44-1.23.1-2.45.2-3.68.3-1.25.11-1.94.88-1.95,2.17,0,2.73,0,5.46,0,8.19,0,.65.14,1.1.44,1.37.3.27.78.38,1.46.31,1.72-.16,3.47-.34,5.17-.5,1.53-.15,3.06-.3,4.59-.45.96-.09,2.23-.2,3.51-.24,1.5-.04,2.38-.88,2.4-2.3.04-2.37.04-4.93,0-8.06-.02-1.37-.99-1.68-1.8-1.69-.27,0-.55,0-.82,0h-.38s-.04,0-.06,0Z"/>
        <path d="M85.04,147.52c-.65,0-1.14-.16-1.48-.48-.38-.36-.57-.91-.58-1.68-.03-2.8-.03-5.4,0-7.95.02-1.75.97-2.75,2.74-2.89h.08c.88-.08,1.79-.15,2.68-.24,2.45-.26,4.9-.52,7.35-.78l2.76-.3s.06,0,.09,0c.04-.01.08-.01.13,0,1.62.46,1.86.77,1.86,2.4v7.83c0,1.66-.71,2.45-2.38,2.65-1.13.13-2.27.28-3.4.42-1.41.18-2.87.37-4.31.53-1.59.18-3.46.38-5.31.47-.08,0-.16,0-.23,0ZM98.68,133.67s-.02,0-.03,0l-2.76.3c-2.45.26-4.9.53-7.36.78-.9.09-1.81.17-2.7.24h-.08c-1.53.13-2.28.92-2.3,2.42-.03,2.55-.03,5.15,0,7.94,0,.63.15,1.07.43,1.33.28.26.72.38,1.36.34,1.84-.1,3.71-.29,5.28-.47,1.44-.16,2.89-.35,4.3-.53,1.13-.14,2.27-.29,3.4-.42,1.42-.17,1.95-.76,1.95-2.17v-7.83c0-1.41-.1-1.54-1.51-1.93Z"/>
        <path d="M78.06,99.41c-.79,0-1.44-.21-1.91-.61-.48-.41-.74-1.01-.75-1.73-.04-2.42-.04-5.03,0-8.2.02-1.34.81-2.28,2.12-2.51,1.15-.21,2.38-.37,3.63-.49,2.68-.25,5.48-.49,8.55-.73,1.31-.1,2.64-.19,3.93-.28,1.06-.07,2.12-.14,3.17-.22.13,0,.27-.07.42-.13.08-.03.16-.07.24-.09.05-.02.09-.02.14,0,0,0,.02,0,.03,0,.94-.12,1.73.09,2.29.61.58.54.85,1.38.79,2.42-.1,1.64-.08,3.32-.06,4.95,0,.78.02,1.59.02,2.38,0,.4-.05.74-.13,1.03-.42,1.37-1.52,1.57-2.61,1.65-1.8.14-3.62.34-5.38.54-1.19.13-2.43.27-3.65.39-1.15.11-2.32.19-3.45.27-1,.07-2.04.14-3.06.23-.94.08-1.89.22-2.81.36-.26.04-.53.08-.79.11-.25.04-.5.05-.73.05ZM97.6,84.9c-.07.02-.13.05-.2.08-.18.07-.36.15-.57.16-1.06.08-2.12.15-3.18.22-1.29.09-2.62.17-3.93.28-3.07.24-5.87.48-8.55.73-1.24.12-2.45.28-3.59.48-1.08.19-1.71.94-1.72,2.04-.04,3.16-.04,5.76,0,8.18,0,.59.21,1.05.58,1.37.5.42,1.3.58,2.26.45.26-.04.52-.08.79-.11.93-.14,1.89-.28,2.84-.36,1.02-.09,2.06-.16,3.07-.23,1.13-.08,2.29-.16,3.43-.27,1.21-.12,2.45-.25,3.64-.39,1.77-.2,3.6-.4,5.4-.54,1.21-.09,1.88-.32,2.19-1.31.07-.24.11-.54.11-.89,0-.79,0-1.59-.02-2.37-.02-1.63-.04-3.33.06-4.99.05-.89-.17-1.59-.64-2.03-.45-.42-1.1-.59-1.9-.48-.03,0-.06,0-.09,0Z"/>
        <path d="M15.92,138.16c-.8,0-1.34-.16-1.72-.51-.5-.46-.71-1.21-.72-2.53,0-.71,0-1.43,0-2.14,0-1.51.01-3.07-.01-4.6-.02-1.05.28-1.92.86-2.53.61-.63,1.5-.96,2.63-.98,1.17-.02,2.33-.11,3.71-.23,2.43-.22,4.9-.48,7.22-.72.2-.02.4-.08.62-.14.1-.03.21-.06.31-.09.04,0,.08,0,.12,0,.02,0,.04,0,.06,0h.44s1,0,1,0c1.69,0,2.29.6,2.29,2.29v1.32c0,2.29,0,4.58,0,6.87,0,1.55-.72,2.36-2.26,2.52-.44.05-.89.09-1.34.13-.4.04-.8.07-1.19.11-1.2.13-2.41.26-3.61.39-2.53.27-5.14.56-7.71.8-.26.02-.5.04-.72.04ZM28.96,124.16s0,0,0,0c-.1.02-.2.05-.29.08-.23.07-.46.13-.7.16-2.32.24-4.8.5-7.23.72-1.13.1-2.44.22-3.75.24-1,.02-1.77.3-2.29.83-.5.52-.75,1.25-.73,2.18.03,1.54.02,3.1.01,4.61,0,.71,0,1.43,0,2.14,0,1.15.17,1.82.56,2.17.37.34,1.01.45,2.07.35,2.57-.24,5.18-.53,7.7-.8,1.2-.13,2.41-.26,3.61-.39.4-.04.8-.08,1.2-.12.44-.04.89-.08,1.33-.13,1.3-.14,1.83-.73,1.83-2.05,0-2.29,0-4.58,0-6.87v-1.32c0-1.42-.39-1.8-1.81-1.81h-1s-.44,0-.44,0c-.02,0-.04,0-.06,0Z"/>
        <path d="M85.15,163.79c-.78,0-1.56-.25-2.1-1.34-.02-.03-.02-.07-.02-.11v-10.03c0-.08.04-.15.1-.19.15-.11.3-.24.46-.39.38-.34.78-.69,1.26-.79,1.01-.21,2.05-.3,3.05-.39.46-.04.95-.09,1.41-.14,1.94-.22,3.87-.45,5.81-.68l2.38-.28s.06,0,.09,0c.02,0,.04,0,.06,0h.6c1.96,0,2.41.45,2.41,2.41v2.29c0,1.89,0,3.77,0,5.66,0,1.26-.88,2.24-2.13,2.4-.56.07-1.12.13-1.67.2-.49.05-.97.11-1.46.17-.87.11-1.74.22-2.62.34-1.98.26-4.04.53-6.07.71-.18.02-.37.04-.55.07-.32.05-.67.09-1.01.09ZM83.51,162.29c.62,1.21,1.58,1.07,2.59.93.2-.03.39-.06.58-.07,2.02-.18,4.07-.45,6.04-.71.87-.12,1.75-.23,2.62-.34.49-.06.97-.11,1.46-.17.56-.06,1.11-.12,1.67-.2,1.02-.13,1.71-.9,1.71-1.93,0-1.89,0-3.77,0-5.66v-2.29c0-1.69-.24-1.93-1.93-1.93h-.6s-.04,0-.06,0c-.01,0-.02,0-.03,0l-2.38.28c-1.94.23-3.87.46-5.81.68-.47.05-.96.1-1.43.14-.99.09-2.02.18-3,.39-.36.07-.71.38-1.04.68-.13.12-.26.23-.4.34v9.85Z"/>
        <path d="M85.16,115.1c-.82,0-1.59-.24-2.17-1.43-.02-.03-.02-.07-.02-.1,0-.8,0-1.62,0-2.46,0-2.14-.02-4.35.03-6.58.03-1.34.87-2.23,2.24-2.39,1.42-.16,2.88-.27,4.28-.39.93-.07,1.89-.15,2.83-.24.97-.09,1.95-.21,2.9-.32.44-.05.87-.1,1.31-.15.03,0,.06,0,.09,0,.02,0,.04,0,.06,0h.56s1.24,0,1.24,0c1.62,0,2.16.55,2.17,2.17,0,2.14,0,4.28,0,6.36v2.5s0,.06-.02.09c-.54,1.39-1.68,1.67-2.61,1.76-1.74.17-3.51.33-5.22.48-2.2.2-4.47.4-6.7.63h-.1c-.29.04-.58.07-.86.07ZM83.45,113.51c.62,1.24,1.46,1.16,2.52,1.05h.1c2.23-.24,4.51-.44,6.7-.64,1.71-.15,3.48-.31,5.22-.48.88-.08,1.75-.31,2.19-1.41v-2.46c0-2.08,0-4.22,0-6.36,0-1.35-.33-1.68-1.68-1.69h-1.24s-.56,0-.56,0c-.02,0-.04,0-.06,0-.01,0-.02,0-.03,0-.44.05-.87.1-1.31.15-.95.11-1.94.23-2.91.32-.94.09-1.9.17-2.83.24-1.4.11-2.85.23-4.26.38-1.13.12-1.79.82-1.81,1.92-.05,2.22-.04,4.43-.03,6.56,0,.82,0,1.62,0,2.4ZM83.45,113.57h0,0Z"/>
        <path d="M39.86,135.89c-.64,0-1.25-.2-1.68-.58-.39-.34-.59-.78-.6-1.27-.03-2.71-.03-5.67,0-9.04,0-1.08.97-2.16,2.01-2.28,1.07-.11,2.16-.21,3.22-.3.73-.06,1.47-.13,2.2-.2,2-.19,3.99-.39,5.99-.59l2.56-.25s.06,0,.08,0c.02,0,.04,0,.06,0,1.79.02,2.63.71,2.64,2.17.02,3.02.01,6.03,0,8.31,0,1.24-.63,2.09-1.74,2.38-.78.21-1.6.3-2.32.38-1.43.16-2.89.3-4.3.44-.57.06-1.15.11-1.72.17-.59.06-1.19.12-1.79.17-1.39.13-2.82.26-4.23.45-.13.02-.27.03-.4.03ZM53.65,121.87s-.02,0-.04,0l-2.56.25c-2,.2-3.99.4-5.99.59-.73.07-1.47.13-2.2.2-1.05.09-2.14.18-3.21.3-.79.09-1.58.98-1.58,1.8-.02,3.37-.02,6.32,0,9.03,0,.35.15.67.43.91.41.36,1.05.52,1.69.44,1.41-.18,2.85-.32,4.24-.45.59-.06,1.19-.11,1.78-.17.57-.06,1.15-.11,1.72-.17,1.41-.14,2.87-.28,4.3-.44.7-.08,1.5-.16,2.25-.36.92-.24,1.38-.89,1.39-1.92.01-2.28.02-5.29,0-8.31,0-1.18-.64-1.67-2.16-1.69-.02,0-.04,0-.06,0Z"/>
        <path d="M62.95,166.43c-.66,0-1.22-.17-1.63-.51-.58-.47-.87-1.23-.87-2.25v-2.21c0-1.83,0-3.66,0-5.49,0-1.19.5-1.99,1.48-2.38.47-.18,1.02-.31,1.62-.38,1.71-.19,3.44-.38,5.12-.55.94-.1,1.88-.2,2.83-.3,1.25-.14,2.51-.28,3.76-.42l1.66-.19s.06,0,.09,0c.04-.01.09-.01.13,0,1.27.39,1.84,1.09,1.85,2.28,0,.51,0,1.01.01,1.52.02,2.11.04,4.29-.03,6.44-.05,1.58-.78,2.44-2.23,2.64-.35.05-.69.1-1.04.15-.49.07-1,.15-1.5.21-.75.09-1.5.18-2.25.26-.96.11-1.95.22-2.93.35-.37.05-.74.09-1.12.14-1.33.16-2.71.33-4.04.6-.32.07-.63.1-.92.1ZM77.01,152.22s-.02,0-.03,0l-1.66.19c-1.25.14-2.51.28-3.76.42-.94.1-1.88.2-2.83.3-1.68.18-3.41.36-5.12.55-.56.06-1.07.18-1.5.35-.8.31-1.18.94-1.18,1.93,0,1.83,0,3.66,0,5.5v2.21c0,.87.23,1.5.69,1.88.48.39,1.22.5,2.15.32,1.35-.27,2.74-.44,4.08-.6.37-.05.74-.09,1.11-.14.98-.13,1.97-.24,2.93-.35.75-.09,1.5-.17,2.24-.26.49-.06,1-.14,1.48-.21.35-.05.69-.1,1.04-.15,1.23-.17,1.77-.82,1.81-2.18.07-2.14.05-4.31.03-6.42,0-.51,0-1.01-.01-1.52,0-.97-.43-1.48-1.5-1.82Z"/>
        <path d="M39.78,168.99c-.55,0-1.07-.18-1.46-.53-.48-.41-.74-1.01-.74-1.67,0-2.81,0-5.62,0-8.43,0-1.5.85-2.49,2.26-2.64,1.74-.19,3.51-.36,5.22-.53,1.47-.15,2.94-.29,4.41-.45.8-.08,1.61-.2,2.39-.32.37-.05.73-.11,1.1-.16.03,0,.06,0,.09,0,.02,0,.04,0,.06,0h.34c.25,0,.5,0,.75,0,1.46,0,2.15.7,2.16,2.17.02,2.45.02,5.13,0,8.19,0,1.23-.79,2.33-1.86,2.62-.27.07-.55.05-.81.04-.19-.01-.37-.02-.54,0-1.61.2-3.24.42-4.82.62-.84.11-1.68.22-2.52.33-.64.08-1.28.16-1.92.24-1.23.15-2.49.31-3.73.49-.12.02-.24.03-.36.03ZM53.04,154.74s-.02,0-.03,0c-.36.05-.73.1-1.09.16-.79.12-1.6.23-2.41.32-1.47.16-2.94.3-4.41.45-1.71.17-3.48.34-5.22.53-1.18.13-1.83.89-1.83,2.16,0,2.81,0,5.62,0,8.43,0,.52.2.99.57,1.31.38.33.9.47,1.44.39,1.25-.18,2.52-.34,3.74-.49.64-.08,1.28-.16,1.92-.24.84-.11,1.68-.22,2.52-.33,1.58-.21,3.22-.42,4.83-.62.21-.03.42-.01.63,0,.24.02.46.03.66-.02.87-.23,1.5-1.14,1.51-2.16.02-3.06.02-5.73,0-8.19,0-1.19-.5-1.68-1.68-1.69-.25,0-.5,0-.74,0h-.34s-.04,0-.06,0Z"/>
        <path d="M63.06,133.62c-.85,0-1.5-.2-1.94-.59-.43-.38-.66-.93-.66-1.64-.02-2.52-.02-5.2,0-8.43,0-1.36.97-2.33,2.39-2.41,1.24-.07,2.27-.14,3.24-.24,1.38-.14,2.76-.28,4.14-.43.91-.1,1.81-.19,2.72-.29.86-.09,1.72-.17,2.58-.25l1.16-.11s.06,0,.08,0c.04,0,.08-.01.11,0,1.46.34,2.09.99,2.1,2.16.03,2.78.03,5.54,0,8.19-.01,1.25-.87,2.33-2,2.51-1.26.21-2.55.35-3.86.49-1.15.12-2.29.24-3.44.35-1.91.19-3.89.39-5.83.63-.28.03-.54.05-.79.05ZM76.77,119.7s-.02,0-.04,0l-1.16.11c-.86.08-1.71.16-2.57.25-.91.09-1.81.19-2.72.29-1.38.15-2.76.29-4.15.43-.97.1-2.01.17-3.26.24-1.15.06-1.93.84-1.93,1.93-.02,3.23-.02,5.91,0,8.43,0,.56.17.99.5,1.28.47.41,1.26.55,2.36.42,1.94-.23,3.92-.43,5.84-.63,1.15-.12,2.29-.23,3.44-.35,1.31-.14,2.59-.28,3.84-.49.9-.15,1.59-1.02,1.6-2.04.03-2.65.03-5.4,0-8.18,0-.93-.49-1.41-1.73-1.69,0,0,0,0,0,0Z"/>
        <path d="M15.93,171.56c-.71,0-1.27-.17-1.67-.52-.49-.41-.74-1.07-.76-1.96-.05-2.34-.05-4.86,0-7.72.03-1.57.9-2.8,2.12-3,1.21-.19,2.47-.35,3.75-.49,1.18-.12,2.39-.23,3.55-.34,1.32-.12,2.69-.25,4.03-.39.71-.08,1.44-.2,2.14-.31.33-.05.65-.11.98-.16.03,0,.07,0,.1,0,.02,0,.05,0,.07,0,1.93.11,2.51.73,2.51,2.65v2.29c0,1.93,0,3.85,0,5.78,0,1.1-.8,2.25-1.75,2.5-.27.07-.54.05-.81.04-.19-.01-.37-.02-.54,0-1.02.13-2.04.27-3.07.41-1.32.18-2.69.37-4.04.53-.87.11-1.75.19-2.61.27-1.08.1-2.19.21-3.28.36-.26.04-.5.05-.72.05ZM30.16,157.15s-.02,0-.02,0c-.33.05-.65.1-.98.16-.71.12-1.44.24-2.17.32-1.35.14-2.71.27-4.04.39-1.16.11-2.37.22-3.55.34-1.27.13-2.52.29-3.72.48-.99.16-1.69,1.2-1.71,2.53-.05,2.85-.05,5.36,0,7.7.02.74.21,1.28.59,1.6.42.36,1.1.48,2.01.35,1.1-.15,2.22-.26,3.3-.36.85-.08,1.74-.16,2.6-.27,1.35-.16,2.71-.35,4.03-.53,1.02-.14,2.05-.28,3.07-.41.21-.03.43-.01.63,0,.24.02.46.03.65-.02.74-.2,1.39-1.15,1.39-2.04,0-1.93,0-3.85,0-5.78v-2.29c0-1.66-.39-2.07-2.06-2.17-.02,0-.03,0-.05,0Z"/>
        <path d="M85.27,131.3c-.76,0-1.33-.18-1.72-.53-.48-.43-.7-1.14-.7-2.15.02-2.04.05-4.11.09-6.11l.03-1.36c.03-1.41.72-2.43,1.87-2.74.3-.08.6-.06.89-.04.2.01.4.03.58,0,2.54-.28,5.11-.57,7.61-.86l.82-.09c.41-.05.82-.1,1.23-.16.19-.03.38-.05.57-.08.03,0,.06,0,.09,0,.02,0,.04,0,.06,0h.56s1.24,0,1.24,0c1.62,0,2.16.55,2.17,2.17,0,2.21,0,4.43,0,6.64v1.42c0,1.67-.59,2.33-2.26,2.52-4.29.48-8.56.92-12.53,1.33-.22.02-.42.03-.61.03ZM85.34,118.84c-.13,0-.26,0-.37.04-.92.25-1.49,1.1-1.51,2.28l-.03,1.36c-.04,2-.08,4.07-.09,6.1,0,.87.17,1.45.54,1.79.38.35,1.03.47,1.96.38,3.97-.41,8.23-.85,12.52-1.33,1.44-.16,1.83-.6,1.83-2.04v-1.42c0-2.21,0-4.43,0-6.64,0-1.35-.33-1.68-1.68-1.69h-1.24s-.56,0-.56,0c-.02,0-.04,0-.06,0,0,0-.02,0-.03,0-.19.03-.38.05-.57.08-.41.06-.83.11-1.24.16l-.82.1c-2.49.29-5.07.59-7.61.86-.22.02-.45,0-.66,0-.13,0-.25-.02-.37-.02Z"/>
        <path d="M23.15,166.98c-.06,0-.12,0-.18-.01-.34-.05-.65-.24-.86-.54-.79-1.11-.59-2.45-.43-3.53.17-1.18,1.08-1.5,1.76-1.65.04,0,.08,0,.11,0,.06-.02.13,0,.19.03.78.51,1.3,1.56,1.36,2.72.05,1.09-.31,2.07-.98,2.6-.3.24-.63.36-.96.36ZM23.52,161.73c-.86.19-1.27.56-1.37,1.24-.15,1.04-.33,2.23.35,3.18.14.19.32.31.54.34.25.03.53-.05.77-.25.55-.44.85-1.26.8-2.2-.05-.99-.46-1.86-1.09-2.31Z"/>
        <path d="M46.71,102c-.53,0-1.02-.19-1.38-.54-.44-.43-.68-1.05-.66-1.75.05-1.96.09-3.94.12-5.87v-.39c.01-.28,0-.56,0-.84-.02-.52-.03-1.06.04-1.59.14-1.11.91-1.88,2-2.02.36-.04.72-.09,1.08-.14.95-.12,1.93-.25,2.9-.34,3.18-.3,5.79-.53,8.19-.72,1.39-.11,2.79-.2,4.16-.29,1.02-.07,2.05-.13,3.07-.21.13,0,.27-.07.42-.13.08-.03.16-.07.24-.09.05-.02.09-.02.14,0,.07-.02.15,0,.22,0,.1,0,.2,0,.28,0,.91-.14,1.69.05,2.23.54.59.53.89,1.42.84,2.48-.07,1.67-.06,3.38-.04,5.03,0,.77.01,1.53.01,2.3,0,1.43-.58,2.24-1.87,2.61-.58.17-1.2.2-1.8.22-.29.01-.59.03-.88.06-.84.09-1.68.18-2.51.27-1.39.15-2.82.31-4.23.44-.71.07-1.42.11-2.12.15-.53.03-1.08.06-1.62.1-1.04.08-2.07.17-3.11.26-1.82.16-3.71.32-5.57.44-.05,0-.1,0-.15,0ZM67.01,87.55c-.07.02-.13.05-.2.08-.18.07-.36.15-.57.16-1.02.07-2.05.14-3.07.21-1.36.09-2.77.18-4.15.29-2.4.19-5,.42-8.18.72-.96.09-1.94.22-2.88.34-.36.05-.72.09-1.09.14-.87.11-1.46.71-1.58,1.6-.06.49-.05.99-.03,1.52,0,.28.02.57.01.86v.39c-.04,1.92-.07,3.91-.12,5.87-.02.55.17,1.06.51,1.39.3.29.71.43,1.16.4,1.85-.12,3.74-.28,5.56-.44,1.04-.09,2.07-.18,3.11-.26.54-.04,1.1-.07,1.63-.1.69-.04,1.4-.08,2.1-.15,1.41-.14,2.84-.29,4.23-.44.84-.09,1.68-.18,2.52-.27.3-.03.61-.05.91-.06.6-.03,1.16-.05,1.69-.21,1.08-.31,1.52-.93,1.52-2.15,0-.76,0-1.53-.01-2.29-.02-1.66-.03-3.37.04-5.06.04-.92-.2-1.67-.69-2.1-.44-.4-1.06-.54-1.84-.42-.13.02-.25.01-.37,0-.07,0-.14,0-.2-.01Z"/>
        <path d="M15.87,104.89c-.69,0-1.24-.19-1.64-.55-.47-.43-.71-1.09-.73-1.96-.05-2.77-.05-5.3,0-7.72.04-1.87,1.17-2.96,3.11-3.02,1-.03,2.07-.1,3.35-.24,1.15-.12,2.32-.25,3.44-.38,1.71-.2,3.48-.4,5.23-.56,1.54-.14,3.12-.24,4.64-.33.9-.05,1.81-.11,2.71-.17.13,0,.27-.07.42-.13.08-.03.16-.07.24-.09.05-.02.09-.02.14,0,.02,0,.04,0,.06,0,1.98,0,2.96.75,2.99,2.28.05,2.67.05,5.39,0,8.32-.02,1.33-.96,2.49-2.12,2.64-1.56.19-3.14.36-4.71.48-1.41.12-2.84.22-4.22.32-.8.06-1.6.11-2.4.17-.79.06-1.83.14-2.88.24-.8.08-1.6.16-2.4.24-1.62.17-3.3.35-4.96.46-.1,0-.19,0-.28,0ZM36.79,90.2c-.07.02-.13.05-.2.08-.18.07-.36.15-.57.16-.9.06-1.81.12-2.71.17-1.52.09-3.09.19-4.62.33-1.74.16-3.51.36-5.22.56-1.13.13-2.3.26-3.45.38-1.3.14-2.38.21-3.39.24-1.69.04-2.61.92-2.64,2.54-.05,2.41-.05,4.93,0,7.7.01.74.21,1.28.57,1.61.35.32.88.46,1.57.42,1.65-.11,3.32-.29,4.94-.46.8-.08,1.6-.17,2.4-.24,1.06-.1,2.11-.18,2.89-.24.8-.06,1.6-.12,2.4-.17,1.38-.1,2.81-.2,4.22-.32,1.55-.13,3.13-.29,4.69-.48.93-.11,1.68-1.07,1.7-2.17.05-2.92.05-5.64,0-8.3-.03-1.25-.8-1.81-2.51-1.81-.02,0-.04,0-.06,0Z"/>
      </g>
    </g>
  </g>
</svg>